<svg width="24" height="24" viewBox="0 0 24 24" fill="none" xmlns="http://www.w3.org/2000/svg">
<mask id="mask0_141_2109" style="mask-type:alpha" maskUnits="userSpaceOnUse" x="0" y="0" width="24" height="24">
<rect y="24" width="24" height="24" transform="rotate(-90 0 24)" fill="#D9D9D9"/>
</mask>
<g mask="url(#mask0_141_2109)">
<path d="M22 12L19 12.25L19 12.5C19 14.8667 18.175 16.875 16.525 18.525C14.875 20.175 12.8667 21 10.5 21C8.13333 21 6.125 20.175 4.475 18.525C2.825 16.875 2 14.8667 2 12.5C2 11.3167 2.22083 10.2125 2.6625 9.1875C3.10417 8.1625 3.7125 7.2625 4.4875 6.4875C5.2625 5.7125 6.1625 5.10417 7.1875 4.6625C8.2125 4.22083 9.31667 4 10.5 4C11.75 4 12.95 4.20417 14.1 4.6125C15.25 5.02083 16.3167 5.57917 17.3 6.2875C18.2833 6.99583 19.175 7.8375 19.975 8.8125C20.775 9.7875 21.45 10.85 22 12ZM15.975 12.525C15.975 12.2417 15.875 12 15.675 11.8C15.475 11.6 15.2333 11.5 14.95 11.5C14.6667 11.5 14.425 11.6 14.225 11.8C14.025 12 13.925 12.2417 13.925 12.525C13.925 12.8083 14.025 13.05 14.225 13.25C14.425 13.45 14.6667 13.55 14.95 13.55C15.2333 13.55 15.475 13.45 15.675 13.25C15.875 13.05 15.975 12.8083 15.975 12.525ZM12.8 13.25L12.8 11.75C12.3 11.75 11.95 11.7 11.75 11.6C11.55 11.5 11.1833 11.1833 10.65 10.65C10.35 10.35 10.025 10.1 9.675 9.9C9.325 9.7 8.95 9.6 8.55 9.6C7.7 9.6 7.0625 9.8875 6.6375 10.4625C6.2125 11.0375 6 11.7167 6 12.5C6 13.2333 6.20417 13.85 6.6125 14.35C7.02083 14.85 7.51667 15.2 8.1 15.4L8.65 14C8.36667 13.9167 8.0875 13.7583 7.8125 13.525C7.5375 13.2917 7.4 12.95 7.4 12.5C7.4 12.05 7.525 11.7125 7.775 11.4875C8.025 11.2625 8.3 11.15 8.6 11.15C8.88333 11.15 9.1375 11.2333 9.3625 11.4C9.5875 11.5667 9.81667 11.7667 10.05 12C10.55 12.5833 10.9458 12.9375 11.2375 13.0625C11.5292 13.1875 12.05 13.25 12.8 13.25Z" fill="white"/>
</g>
</svg>
