<svg width="311" height="312" viewBox="0 0 311 312" fill="none" xmlns="http://www.w3.org/2000/svg">
<rect y="0.5" width="311" height="311" rx="155.5" fill="white"/>
<path d="M131.716 79.0468C133.161 75.2538 135.148 71.7618 138.098 68.9321C149.899 57.4328 169.405 60.3227 177.413 74.7721C183.433 85.7296 189.815 96.4463 196.017 107.283C206.372 125.285 216.848 143.287 227.083 161.348C235.692 176.46 226.36 195.545 209.262 198.134C198.786 199.7 188.972 194.883 183.554 185.491C174.463 169.657 165.311 153.823 156.22 138.049C156.04 137.687 155.799 137.386 155.558 137.085C154.595 136.303 154.173 135.159 153.571 134.135C149.537 127.031 145.383 119.987 141.349 112.943C138.761 108.367 136.051 103.852 133.462 99.276C131.114 95.182 130.031 90.7267 130.151 86.0307C130.332 83.6224 130.633 81.2142 131.716 79.0468Z" fill="#3C8BD9"/>
<path d="M131.717 79.0469C131.175 81.2143 130.693 83.3817 130.573 85.6695C130.392 90.7268 131.657 95.4229 134.185 99.818C140.808 111.197 147.431 122.636 153.993 134.075C154.595 135.099 155.077 136.122 155.679 137.085C152.066 143.347 148.454 149.548 144.781 155.81C139.724 164.539 134.667 173.33 129.549 182.059C129.309 182.059 129.248 181.939 129.188 181.758C129.128 181.277 129.309 180.855 129.429 180.374C131.897 171.343 129.85 163.335 123.649 156.472C119.856 152.318 115.04 149.97 109.501 149.187C102.276 148.163 95.8942 150.03 90.1746 154.545C89.1511 155.328 88.4888 156.472 87.2847 157.074C87.0439 157.074 86.9235 156.953 86.8633 156.773C89.7532 151.776 92.5829 146.779 95.4727 141.782C107.394 121.071 119.314 100.36 131.295 79.7091C131.416 79.4683 131.596 79.2877 131.717 79.0469Z" fill="#FABC04"/>
<path d="M87.1043 156.953C88.2482 155.93 89.332 154.846 90.5361 153.883C105.166 142.323 127.141 150.692 130.332 168.994C131.115 173.39 130.693 177.604 129.369 181.818C129.309 182.18 129.249 182.481 129.128 182.842C128.586 183.805 128.105 184.829 127.503 185.792C122.144 194.642 114.257 199.037 103.902 198.375C92.0412 197.532 82.7093 188.622 81.0837 176.821C80.3011 171.102 81.445 165.743 84.3951 160.806C84.9971 159.723 85.7196 158.759 86.3819 157.676C86.6829 157.435 86.5625 156.953 87.1043 156.953Z" fill="#34A852"/>
<path d="M87.1038 156.953C86.8629 157.194 86.8629 157.616 86.4415 157.676C86.3813 157.254 86.6221 157.014 86.8629 156.713L87.1038 156.953Z" fill="#FABC04"/>
<path d="M129.127 182.842C128.886 182.42 129.127 182.119 129.368 181.818C129.428 181.879 129.549 181.999 129.609 182.059L129.127 182.842Z" fill="#E1C025"/>
<path d="M92.4627 218.604C85.6594 218.604 80 224.083 80 230.826C80 237.569 85.6594 242.988 92.4627 242.988C96.1352 242.988 98.8445 241.784 101.012 239.556C103.24 237.328 103.902 234.258 103.902 231.789C103.902 231.007 103.842 230.284 103.721 229.682H92.4627V232.994H100.47C100.229 234.86 99.6272 236.245 98.6639 237.208C97.52 238.352 95.6536 239.676 92.4627 239.676C87.5258 239.676 83.6726 235.703 83.6726 230.826C83.6726 225.95 87.5258 221.976 92.4627 221.976C95.1117 221.976 97.0985 222.999 98.4833 224.384L100.831 222.036C98.8445 220.11 96.1954 218.604 92.4627 218.604ZM112.872 227.334C108.598 227.334 105.046 230.646 105.046 235.281C105.046 239.857 108.538 243.229 112.872 243.229C117.207 243.229 120.699 239.857 120.699 235.281C120.699 230.706 117.147 227.334 112.872 227.334ZM112.872 240.098C110.524 240.098 108.477 238.111 108.477 235.281C108.477 232.452 110.524 230.465 112.872 230.465C115.221 230.465 117.268 232.392 117.268 235.281C117.268 238.111 115.221 240.098 112.872 240.098ZM129.851 227.334C125.516 227.334 122.024 230.646 122.024 235.281C122.024 239.857 125.516 243.229 129.851 243.229C134.125 243.229 137.677 239.857 137.677 235.281C137.677 230.706 134.185 227.334 129.851 227.334ZM129.851 240.098C127.503 240.098 125.456 238.111 125.456 235.281C125.456 232.452 127.503 230.465 129.851 230.465C132.199 230.465 134.246 232.392 134.246 235.281C134.246 238.111 132.259 240.098 129.851 240.098ZM146.768 227.334C142.855 227.334 139.303 230.766 139.303 235.221C139.303 239.616 142.855 243.048 146.768 243.048C148.635 243.048 150.08 242.205 150.863 241.242H150.983V242.386C150.983 245.396 149.418 247.022 146.829 247.022C144.721 247.022 143.457 245.516 142.915 244.252L139.905 245.516C140.748 247.624 143.036 250.152 146.829 250.152C150.863 250.152 154.234 247.744 154.234 241.964V227.876H150.983V229.14H150.863C150.08 228.177 148.635 227.334 146.768 227.334ZM147.07 239.978C144.721 239.978 142.735 237.991 142.735 235.221C142.735 232.452 144.721 230.405 147.07 230.405C149.418 230.405 151.224 232.452 151.224 235.221C151.224 237.991 149.418 239.978 147.07 239.978ZM156.763 219.568H160.194V242.807H156.763V219.568ZM169.406 227.334C165.312 227.334 161.88 230.525 161.88 235.281C161.88 239.737 165.252 243.229 169.767 243.229C173.44 243.229 175.547 241.001 176.39 239.737L173.681 237.931C172.778 239.255 171.513 240.098 169.767 240.098C167.961 240.098 166.697 239.315 165.914 237.69L176.57 233.295L176.209 232.392C175.547 230.646 173.5 227.334 169.406 227.334ZM165.312 235.041C165.192 231.97 167.72 230.405 169.466 230.405C170.851 230.405 172.055 231.067 172.416 232.091L165.312 235.041Z" fill="#757575"/>
<path d="M182.591 242.446L190.539 221.313H193.609L201.556 242.446H198.546L196.499 236.726H187.649L185.602 242.446H182.591ZM188.552 234.198H195.596L192.164 224.685H192.044L188.552 234.198Z" fill="#757575"/>
<path d="M204.326 240.7C203.001 239.195 202.339 237.388 202.339 235.221C202.339 233.114 203.001 231.308 204.326 229.742C205.71 228.237 207.276 227.515 209.202 227.515C210.286 227.515 211.249 227.756 212.092 228.177C212.995 228.659 213.658 229.2 214.139 229.983H214.26L214.139 227.996V221.313H216.849V242.446H214.26V240.459H214.139C213.658 241.181 212.995 241.784 212.092 242.265C211.189 242.747 210.226 242.927 209.202 242.927C207.276 242.927 205.65 242.205 204.326 240.7ZM212.875 239.014C213.778 238.051 214.199 236.786 214.199 235.221C214.199 233.716 213.778 232.452 212.875 231.488C212.032 230.525 210.948 230.043 209.624 230.043C208.299 230.043 207.216 230.525 206.373 231.488C205.47 232.452 205.048 233.716 205.048 235.221C205.048 236.726 205.47 237.991 206.373 238.954C207.276 239.917 208.359 240.399 209.624 240.399C210.948 240.459 212.032 239.977 212.875 239.014Z" fill="#757575"/>
<path d="M229.371 241.603C228.287 242.446 226.902 242.928 225.216 242.928C223.771 242.928 222.507 242.566 221.363 241.784C220.279 241.001 219.497 240.038 219.015 238.773L221.423 237.75C221.785 238.593 222.266 239.315 222.989 239.797C223.651 240.278 224.434 240.519 225.216 240.519C226.059 240.519 226.782 240.339 227.384 239.977C227.986 239.616 228.227 239.135 228.227 238.653C228.227 237.75 227.504 237.027 226.119 236.606L223.651 236.004C220.821 235.281 219.437 233.957 219.437 231.91C219.437 230.585 219.978 229.562 221.062 228.719C222.146 227.936 223.531 227.515 225.156 227.515C226.42 227.515 227.564 227.816 228.648 228.418C229.672 229.02 230.394 229.863 230.816 230.886L228.407 231.91C228.106 231.308 227.685 230.826 227.083 230.465C226.481 230.104 225.758 229.923 224.976 229.923C224.253 229.923 223.651 230.104 223.049 230.465C222.507 230.826 222.206 231.248 222.206 231.789C222.206 232.632 222.989 233.234 224.554 233.535L226.722 234.077C229.611 234.8 230.996 236.245 230.996 238.412C231.056 239.676 230.454 240.76 229.371 241.603Z" fill="#757575"/>
</svg>
