<svg width="20" height="20" viewBox="0 0 20 20" fill="none" xmlns="http://www.w3.org/2000/svg">
<path d="M13.7338 1.66675H6.26597C3.72991 1.66675 1.66667 3.73009 1.66667 6.26615V13.734C1.66667 16.2702 3.72991 18.3334 6.26597 18.3334H13.7338C16.2701 18.3334 18.3333 16.2701 18.3333 13.734V6.26615C18.3334 3.73009 16.2701 1.66675 13.7338 1.66675ZM16.8547 13.734C16.8547 15.4548 15.4547 16.8547 13.7339 16.8547H6.26597C4.5453 16.8548 3.14542 15.4548 3.14542 13.734V6.26615C3.14542 4.54547 4.5453 3.1455 6.26597 3.1455H13.7338C15.4546 3.1455 16.8546 4.54547 16.8546 6.26615V13.734H16.8547Z" fill="#D332BE"/>
<path d="M10.0001 5.70581C7.63206 5.70581 5.70555 7.63232 5.70555 10.0004C5.70555 12.3684 7.63206 14.2948 10.0001 14.2948C12.3682 14.2948 14.2947 12.3684 14.2947 10.0004C14.2947 7.63232 12.3682 5.70581 10.0001 5.70581ZM10.0001 12.8159C8.44754 12.8159 7.18429 11.5529 7.18429 10.0003C7.18429 8.44761 8.44744 7.18446 10.0001 7.18446C11.5528 7.18446 12.816 8.44761 12.816 10.0003C12.816 11.5529 11.5527 12.8159 10.0001 12.8159Z" fill="#D332BE"/>
<path d="M14.4746 4.4519C14.1897 4.4519 13.9099 4.56725 13.7087 4.76934C13.5065 4.97045 13.3902 5.25043 13.3902 5.53632C13.3902 5.82132 13.5066 6.1012 13.7087 6.3033C13.9098 6.50441 14.1897 6.62073 14.4746 6.62073C14.7605 6.62073 15.0395 6.50441 15.2416 6.3033C15.4437 6.1012 15.5591 5.82122 15.5591 5.53632C15.5591 5.25043 15.4437 4.97045 15.2416 4.76934C15.0405 4.56725 14.7605 4.4519 14.4746 4.4519Z" fill="#D332BE"/>
</svg>
