<svg width="132" height="141" viewBox="0 0 132 141" fill="none" xmlns="http://www.w3.org/2000/svg">
<g clip-path="url(#clip0_48_3543)">
<path d="M14.0058 100.075L3.60596 135.773H6.52925L20.8668 99.8276L14.0058 100.075Z" fill="#6F4439"/>
<path d="M39.5174 100.075L29.1224 135.434H32.0457L46.3833 99.8276L39.5174 100.075Z" fill="#6F4439"/>
<path d="M71.1976 100.075L80.6262 135.434H77.7029L64.3365 99.8276L71.1976 100.075Z" fill="#AE7461"/>
<path d="M40.6665 100.075L49.6046 135.434H46.6814L33.8054 99.8276L40.6665 100.075Z" fill="#AE7461"/>
<path d="M76.8325 84.5942C76.8325 84.5942 77.645 73.8309 76.0199 70.7619C74.3948 67.688 58.7686 61.453 58.7686 61.453C58.7686 61.453 48.0419 44.3819 40.8731 40.7699C33.7043 37.1579 5.70708 37.6524 1.63947 43.2329C-2.42813 48.8133 2.12989 63.4214 4.24543 72.2842L11.895 93.9516L14.0106 100.08H72.284L76.8421 84.5991L76.8325 84.5942Z" fill="#45B800"/>
<path d="M4.25496 43.0582C4.25496 43.0582 4.23573 43.097 4.21169 43.1697C4.18765 43.2425 4.14918 43.3588 4.10591 43.5043C4.01937 43.8 3.90397 44.2461 3.78858 44.8279C3.5626 45.9866 3.32701 47.703 3.42798 49.8459C3.48087 50.9174 3.63953 52.081 3.82705 53.3271C4.01456 54.5731 4.24054 55.9064 4.49536 57.3124C5.00021 60.1245 5.60121 63.2226 6.27915 66.5049L6.28876 66.5534L6.33204 66.5776C7.2071 67.0237 8.13024 67.494 9.07262 67.9546C15.6837 71.2127 21.8909 73.6853 26.4297 75.3095C28.6991 76.124 30.555 76.7301 31.8435 77.1374C32.4782 77.3313 32.9782 77.4816 33.3292 77.5931C33.4927 77.6416 33.6177 77.6755 33.7186 77.7046C33.8052 77.7289 33.8533 77.7385 33.8533 77.7385C33.8533 77.7385 33.81 77.7192 33.7235 77.6852C33.6273 77.6513 33.5023 77.6076 33.3436 77.5543C32.9926 77.438 32.5022 77.2731 31.8724 77.0646C30.5934 76.6331 28.7471 76.0077 26.4825 75.1738C21.9582 73.5156 15.7702 71.0236 9.16397 67.7703C8.2216 67.3097 7.29845 66.8394 6.4282 66.3982L6.48108 66.471C5.80315 63.1935 5.19253 60.0954 4.67807 57.2882C4.41843 55.887 4.18765 54.5537 3.99052 53.3077C3.7982 52.0616 3.62511 50.9029 3.56741 49.8459C3.44721 47.7223 3.66357 46.0109 3.86551 44.8521C3.96648 44.2703 4.07226 43.8291 4.14438 43.5285C4.17803 43.3879 4.20688 43.2764 4.23092 43.1891C4.25496 43.1116 4.26458 43.0728 4.25977 43.0728L4.25496 43.0582Z" fill="#45B800"/>
<path d="M69.3125 93.3941C69.2548 93.3844 68.9615 94.8728 68.6586 96.7201C68.3557 98.5673 68.1538 100.07 68.2067 100.08C68.2644 100.09 68.5576 98.6012 68.8605 96.754C69.1683 94.9068 69.3702 93.4038 69.3125 93.3941Z" fill="#072142"/>
<path d="M39.1471 99.8278C39.2048 99.8181 38.5509 95.7067 37.695 90.645C36.8344 85.5833 36.094 81.4864 36.0363 81.4961C35.9786 81.5058 36.6325 85.6172 37.4883 90.6789C38.3489 95.7406 39.0894 99.8375 39.1471 99.8278Z" fill="#072142"/>
<path d="M109.335 102.771L117.345 112.991C117.345 112.991 130.336 108.215 132 109.956L112.902 126.329L99.7764 110.921L109.335 102.771Z" fill="#072142"/>
<path d="M110.734 117.224C110.45 117.641 110.546 118.281 110.95 118.581C111.354 118.882 111.998 118.79 112.287 118.378C112.58 117.966 112.484 117.195 112.051 116.938C111.619 116.681 110.869 116.836 110.681 117.306" fill="#E5E7EB"/>
<path d="M112.902 126.334L111.638 124.729L130.418 109.631C130.418 109.631 131.582 109.277 131.995 109.961L112.898 126.334H112.902Z" fill="#374151"/>
<path d="M117.571 112.628C117.648 112.725 117.215 113.166 117.013 113.864C116.792 114.552 116.898 115.163 116.783 115.202C116.682 115.256 116.345 114.577 116.609 113.738C116.864 112.899 117.523 112.526 117.576 112.633L117.571 112.628Z" fill="white"/>
<path d="M120.278 111.75C120.374 111.823 120.105 112.327 120.124 113.001C120.124 113.67 120.408 114.169 120.312 114.247C120.235 114.339 119.706 113.84 119.701 113.011C119.687 112.177 120.201 111.668 120.278 111.755V111.75Z" fill="white"/>
<path d="M123.451 113.19C123.384 113.282 122.86 112.923 122.663 112.206C122.461 111.488 122.73 110.906 122.836 110.95C122.951 110.984 122.903 111.503 123.071 112.089C123.225 112.681 123.533 113.102 123.451 113.19Z" fill="white"/>
<path d="M115.489 110.504C115.523 110.625 114.984 110.858 114.489 111.347C113.984 111.827 113.725 112.356 113.604 112.317C113.494 112.293 113.604 111.604 114.191 111.037C114.778 110.465 115.47 110.392 115.484 110.504H115.489Z" fill="white"/>
<path d="M91.9248 85.4039C91.9248 86.3299 96.0309 128.899 96.0309 128.899L82.1645 130.518C82.1645 130.518 78.7123 109.049 78.1786 105.093C77.6449 101.137 75.8467 94.0436 75.8467 94.0436L46.2628 91.091C46.2628 91.091 60.7735 70.6212 62.1822 70.5339C63.5958 70.4467 91.9248 85.399 91.9248 85.399V85.4039Z" fill="#072142"/>
<path d="M115.898 108.923C115.898 108.923 91.0641 74.98 89.6361 73.2055C88.2081 71.431 86.5494 69.5401 81.3711 69.5401C76.1928 69.5401 62.187 70.5437 62.187 70.5437L54.7874 67.145L27.9201 71.3243C27.9201 71.3243 26.9296 84.2112 28.6894 87.2124C30.4539 90.2135 40.921 90.9892 43.1231 91.1008C45.3252 91.2123 79.4575 86.5385 79.4575 86.5385C79.4575 86.5385 86.1455 95.9006 89.3573 99.4981C91.6459 102.063 103.863 117.873 103.863 117.873L115.898 108.928V108.923Z" fill="#072142"/>
<path d="M103.704 117.99C103.584 117.83 91.4632 102.155 89.2082 99.6241C86.2032 96.2545 80.0874 87.7553 79.3661 86.7469C76.8131 87.096 45.2627 91.4207 43.1135 91.2946C41.8201 91.2316 30.4299 90.5625 28.5211 87.3093C26.7469 84.2888 27.6797 71.8333 27.723 71.3049L27.7374 71.1449L54.7586 66.9413L54.8163 66.9316L62.2255 70.3352C63.1534 70.2673 76.4044 69.3364 81.3759 69.3364C86.7801 69.3364 88.4485 71.4115 89.7948 73.0794C91.2132 74.8393 115.816 108.468 116.066 108.807L116.181 108.967L103.829 118.145L103.709 117.99H103.704ZM89.4775 73.3266C88.1889 71.7267 86.583 69.734 81.3663 69.734C76.1496 69.734 62.3361 70.7279 62.1966 70.7376H62.1485L54.7538 67.3437L28.1028 71.4891C27.997 72.9727 27.2518 84.3663 28.8577 87.1008C30.6943 90.228 42.6231 90.868 43.1327 90.8922C45.2964 91.0037 79.0873 86.3784 79.4286 86.3348L79.5489 86.3202L79.621 86.4172C79.6883 86.5093 86.3426 95.8085 89.5063 99.3623C91.6507 101.767 102.632 115.953 103.902 117.597L115.624 108.884C113.763 106.344 90.8429 75.0236 89.4823 73.3315L89.4775 73.3266Z" fill="#374151"/>
<path d="M82.1982 82.0343C82.1501 82.0003 81.4337 83.0379 80.5923 84.3421C79.7509 85.6463 79.1162 86.7323 79.1643 86.7663C79.2124 86.8002 79.9288 85.7626 80.7702 84.4584C81.6068 83.1494 82.2463 82.0682 82.1982 82.0343Z" fill="#374151"/>
<path d="M94.9111 120.482L94.2043 133.49C94.2043 133.49 107.08 138.585 107.181 141L82.1217 140.525L82.3958 120.21L94.9111 120.482Z" fill="#072142"/>
<path d="M86.4725 132.249C85.9869 132.375 85.6407 132.918 85.7417 133.412C85.8427 133.907 86.3908 134.266 86.8812 134.149C87.3716 134.033 87.8043 133.393 87.6457 132.913C87.487 132.433 86.8235 132.045 86.3763 132.278" fill="#E5E7EB"/>
<path d="M82.1165 140.525L82.2222 138.479L106.21 139.701C106.21 139.701 107.315 140.21 107.176 141L82.1165 140.525Z" fill="#374151"/>
<path d="M94.6125 133.369C94.6077 133.495 93.9923 133.538 93.3817 133.921C92.7614 134.29 92.4393 134.818 92.3287 134.77C92.2181 134.745 92.4153 134.008 93.1605 133.558C93.9009 133.097 94.6366 133.257 94.6125 133.373V133.369Z" fill="white"/>
<path d="M97.2186 134.513C97.2426 134.634 96.7089 134.833 96.2858 135.347C95.8435 135.846 95.7281 136.408 95.6079 136.403C95.4925 136.423 95.4204 135.696 95.9637 135.065C96.4974 134.43 97.2186 134.391 97.2186 134.513Z" fill="white"/>
<path d="M98.6561 137.718C98.5455 137.742 98.3869 137.121 98.7138 136.452C99.036 135.778 99.6177 135.526 99.6658 135.628C99.7331 135.73 99.3533 136.089 99.0937 136.641C98.8196 137.189 98.7763 137.708 98.6561 137.718Z" fill="white"/>
<path d="M94.449 130.387C94.3961 130.498 93.8384 130.319 93.146 130.353C92.4537 130.372 91.9104 130.595 91.8479 130.489C91.7806 130.397 92.3143 129.951 93.1268 129.921C93.9442 129.888 94.5115 130.29 94.449 130.387Z" fill="white"/>
<path d="M44.2675 37.7783L43.3972 45.8944L53.4989 66.3351C53.4989 66.3351 59.4753 68.3423 61.5908 70.5338L56.7491 70.7471C49.8111 71.0526 43.0895 73.4864 37.541 77.85C35.1514 79.7311 33.2234 81.7674 32.8628 83.6147C31.8098 89.0642 30.1991 88.2206 30.1991 88.2206L24.0737 80.2693L19.7801 71.6683L11.1737 37.9819L19.4868 33.3808L21.3523 30.6415L33.6465 32.3675L36.0986 34.8062L44.2675 37.7734V37.7783Z" fill="#374151"/>
<path d="M64.6776 59.5522L59.5137 57.3753L51.4025 45.8992C51.4025 45.8992 47.6427 38.3115 44.2674 37.7782C40.8922 37.2449 43.3972 45.8944 43.3972 45.8944L48.5995 60.7885L56.9895 66.7084L62.7736 66.1993L66.519 62.9848L64.6776 59.5473V59.5522Z" fill="#374151"/>
<path d="M43.4596 40.6049C43.4596 40.6049 43.4836 40.7018 43.5461 40.8715C43.6183 41.0606 43.7144 41.3127 43.8346 41.623C44.0991 42.2969 44.4645 43.2327 44.9164 44.3769C45.8252 46.7041 47.0416 49.9331 48.3782 53.5063C49.7149 57.0796 50.9505 60.3037 51.8977 62.6213C52.3689 63.78 52.7583 64.7109 53.042 65.3509C53.1766 65.6563 53.2872 65.8988 53.369 66.0878C53.4459 66.2575 53.4892 66.34 53.494 66.34C53.4988 66.34 53.4699 66.243 53.4074 66.0733C53.3353 65.8842 53.2392 65.6321 53.119 65.3218C52.8545 64.6479 52.4891 63.7121 52.0371 62.5679C51.1284 60.2407 49.912 57.0117 48.5754 53.4385C47.2387 49.8652 46.003 46.6411 45.0559 44.3284C44.5847 43.1696 44.1952 42.2388 43.9116 41.5988C43.7769 41.2933 43.6663 41.0509 43.5846 40.8618C43.5077 40.697 43.4644 40.6097 43.4596 40.6097V40.6049Z" fill="#072142"/>
<path d="M33.3291 40.2654C33.3291 40.2654 33.4541 40.0764 33.6416 39.7127C33.8436 39.3152 34.1032 38.7964 34.4157 38.1758H34.2811C34.5503 38.777 34.8677 39.4897 35.286 40.2461C35.7043 40.9975 36.238 41.8024 36.9736 42.486L37.1659 42.6654L37.1467 42.3987C37.1467 42.3987 37.1467 42.3696 37.1467 42.3551C36.9976 40.2897 36.7572 38.4279 36.5361 37.0898C36.4255 36.4207 36.3293 35.8825 36.2524 35.5092C36.1755 35.1359 36.1274 34.9322 36.113 34.9371C36.0985 34.9371 36.1226 35.1504 36.1755 35.5237C36.2332 35.9359 36.3053 36.4692 36.3966 37.114C36.5793 38.457 36.7957 40.3139 36.9447 42.3745C36.9447 42.389 36.9447 42.4036 36.9447 42.4181L37.1178 42.3357C36.4062 41.6763 35.8822 40.8909 35.4591 40.1539C35.036 39.4121 34.709 38.7091 34.4253 38.1128L34.3532 37.9673L34.2859 38.1128C33.9974 38.7479 33.757 39.2764 33.5743 39.6788C33.4108 40.0521 33.3243 40.2606 33.3387 40.2654H33.3291Z" fill="#072142"/>
<path d="M20.2848 34.016C20.2848 34.016 20.3185 34.0742 20.4002 34.1808C20.4964 34.302 20.6166 34.4475 20.7608 34.622C21.0782 35.0002 21.5445 35.5432 22.1407 36.1929C23.3283 37.4971 25.0448 39.2377 27.069 41.017C27.9873 41.8267 28.8912 42.5685 29.7326 43.2327L29.8865 43.3539V43.16C29.9153 41.6279 30.2038 40.3092 30.5067 39.3298L30.4058 39.3686C31.0308 39.7274 31.5357 40.0231 31.9155 40.2413C32.2713 40.4401 32.4636 40.5419 32.4732 40.5322C32.478 40.5225 32.3001 40.3964 31.954 40.1783C31.5837 39.9455 31.0885 39.6352 30.4731 39.2522L30.401 39.2086L30.3721 39.291C30.0404 40.2704 29.7278 41.6037 29.6894 43.16L29.8432 43.0873C29.0114 42.4182 28.1123 41.6715 27.1988 40.8667C25.1794 39.0971 23.4581 37.3759 22.2417 36.1008C21.6311 35.4656 21.1503 34.9372 20.8137 34.5784C20.6599 34.4136 20.53 34.2778 20.4243 34.1614C20.3329 34.0693 20.2848 34.0208 20.28 34.0257L20.2848 34.016Z" fill="#072142"/>
<path d="M21.0302 31.7082L20.1936 14.4868C19.6599 9.09547 22.3332 4.29075 27.6894 3.90288H28.1846C33.1898 3.83015 37.4064 7.65066 37.8728 12.6736C38.3055 17.3474 38.7286 22.5206 38.7286 25.032C38.7286 30.2295 33.584 31.107 33.584 31.107C33.5744 31.107 33.7235 34.2633 33.8052 35.7857L32.7282 39.7516L21.0206 31.7034L21.0302 31.7082Z" fill="#FFBF9D"/>
<path d="M33.5842 31.1216C33.5842 31.1216 30.3388 31.3544 26.8481 29.2065C26.8481 29.2065 28.5117 33.0949 33.6515 32.5568L33.5842 31.1168V31.1216Z" fill="#FF9A6C"/>
<path d="M36.3439 17.4249C36.3632 17.8176 36.0506 18.157 35.642 18.1812C35.2381 18.2103 34.8919 17.9146 34.8727 17.5218C34.8534 17.1291 35.166 16.7897 35.5698 16.7606C35.9737 16.7316 36.3199 17.0273 36.3391 17.42L36.3439 17.4249Z" fill="#072142"/>
<path d="M36.8055 14.8068C36.7142 14.9038 36.1516 14.4966 35.3583 14.5062C34.565 14.5062 33.9928 14.9281 33.9014 14.8311C33.8582 14.7875 33.9495 14.6129 34.1995 14.4238C34.4448 14.2347 34.8679 14.0505 35.3631 14.0457C35.8583 14.0457 36.2766 14.2202 36.517 14.4044C36.7622 14.5887 36.8488 14.7632 36.8055 14.8068Z" fill="#072142"/>
<path d="M29.4349 17.58C29.4541 17.9727 29.1416 18.3121 28.7329 18.3364C28.329 18.3655 27.9828 18.0697 27.9636 17.677C27.9444 17.2843 28.2569 16.9449 28.6656 16.9158C29.0695 16.8867 29.4156 17.1825 29.4349 17.5752V17.58Z" fill="#072142"/>
<path d="M29.0404 15.0929C28.949 15.1898 28.3865 14.7826 27.5931 14.7923C26.7998 14.7923 26.2277 15.2141 26.1363 15.1171C26.093 15.0735 26.1844 14.8989 26.4344 14.7098C26.6796 14.5208 27.1027 14.3365 27.598 14.3317C28.0932 14.3317 28.5067 14.5062 28.7519 14.6904C28.9971 14.8747 29.0836 15.0492 29.0404 15.0929Z" fill="#072142"/>
<path d="M31.959 21.1969C31.959 21.1532 32.4446 21.0611 33.2427 20.9448C33.4447 20.9205 33.637 20.8769 33.6658 20.7363C33.7139 20.5908 33.6226 20.3678 33.5216 20.1351C33.3245 19.6454 33.1177 19.1315 32.9014 18.5884C32.0407 16.3873 31.4157 14.5789 31.507 14.5449C31.5936 14.511 32.3629 16.2661 33.2235 18.4672C33.4303 19.0103 33.6274 19.529 33.8149 20.0236C33.8918 20.2563 34.0313 20.5132 33.9303 20.8235C33.8774 20.9787 33.7332 21.0902 33.6033 21.1241C33.4735 21.1678 33.3581 21.1678 33.262 21.1775C32.459 21.2308 31.9638 21.2405 31.959 21.1969Z" fill="#072142"/>
<path d="M29.2664 12.5911C29.1606 12.7948 28.3914 12.5911 27.4538 12.5863C26.5162 12.5572 25.7373 12.7366 25.6412 12.5281C25.5979 12.4263 25.7565 12.2421 26.0835 12.0724C26.4104 11.9027 26.9105 11.7669 27.4682 11.7766C28.0307 11.7863 28.526 11.9415 28.8433 12.1257C29.1654 12.3051 29.3145 12.499 29.2664 12.596V12.5911Z" fill="#072142"/>
<path d="M36.8103 12.4602C36.6517 12.6445 36.0026 12.4748 35.2237 12.4893C34.4496 12.4796 33.7957 12.6542 33.637 12.4651C33.5697 12.373 33.6659 12.1887 33.9496 12.0093C34.2284 11.83 34.6948 11.6797 35.2285 11.6748C35.7622 11.6748 36.2286 11.8251 36.5026 12.0045C36.7815 12.1839 36.8777 12.3681 36.8055 12.4602H36.8103Z" fill="#072142"/>
<path d="M20.6552 18.1523C20.5687 18.1135 17.1021 17.1438 17.2559 20.6928C17.4146 24.2466 20.9197 23.3545 20.9197 23.2479C20.9197 23.1461 20.6504 18.1474 20.6504 18.1474L20.6552 18.1523Z" fill="#FFBF9D"/>
<path d="M19.785 21.9532C19.785 21.9532 19.7273 22.0017 19.6263 22.0502C19.5254 22.1035 19.3523 22.1423 19.1696 22.0793C18.7897 21.9581 18.4532 21.3763 18.4051 20.7363C18.3811 20.4115 18.4339 20.1012 18.5397 19.8442C18.6359 19.5775 18.7945 19.3885 18.9821 19.3497C19.1648 19.2963 19.3042 19.403 19.3523 19.5048C19.4052 19.6018 19.3859 19.6745 19.4052 19.6794C19.4148 19.6891 19.4773 19.6163 19.4436 19.4709C19.4244 19.403 19.3811 19.3206 19.2946 19.2527C19.208 19.1897 19.083 19.1557 18.9532 19.18C18.684 19.2139 18.4484 19.4757 18.3378 19.7618C18.2128 20.0478 18.1455 20.3969 18.1695 20.7605C18.2224 21.4733 18.6166 22.1278 19.1311 22.2538C19.3811 22.3072 19.5831 22.2248 19.6888 22.1326C19.7946 22.0405 19.809 21.9581 19.7946 21.9532H19.785Z" fill="#FF9A6C"/>
<path d="M44.7245 7.43739C44.6619 7.22891 44.5033 7.06407 44.311 6.96225C43.8975 6.73923 43.4359 6.79256 42.9839 6.80226C41.8637 6.83135 40.7434 6.59378 39.7241 6.12349C40.0655 5.92955 40.378 5.70168 40.6424 5.41078C41.1857 4.81443 41.479 3.92233 41.1857 3.16599C41.1328 3.02538 41.0415 2.87508 40.8972 2.8363C40.6665 2.77327 40.4741 3.01084 40.3203 3.19508C39.8202 3.81082 39.3491 4.08233 38.5605 4.03869C38.0701 4.0096 37.5941 3.92233 37.2047 3.69931C37.1902 3.68476 37.1758 3.66537 37.1566 3.65082C36.9643 3.46658 36.7768 3.29204 36.5941 3.1272C35.2141 1.86178 34.0314 0.989072 32.839 0.567265C31.0888 -0.0581732 28.1992 -0.213321 26.425 0.334544C24.6509 0.887257 23.1027 2.42419 22.9344 4.28596C21.8911 3.47143 20.3813 3.54416 19.1793 4.09202L19.1457 4.08233C17.8042 4.63019 17.0878 6.11864 16.7465 7.53921C16.7272 7.61678 16.7128 7.69435 16.6936 7.77193C16.2656 8.52827 15.6646 9.18765 14.9338 9.65794C14.804 9.74036 14.6598 9.84218 14.6501 9.99732C14.6405 10.1476 14.7752 10.2688 14.9002 10.3513C15.2367 10.5743 15.6262 10.71 16.0252 10.7682C15.9147 11.1076 15.7848 11.4373 15.6118 11.7524C15.4675 12.0239 15.2992 12.3439 15.4435 12.6106C15.5589 12.8191 15.8281 12.8918 16.0589 12.8482C16.2897 12.8045 16.4868 12.6639 16.6791 12.533C16.5445 12.9063 16.4051 13.2797 16.2705 13.653C16.7657 13.716 17.2753 13.653 17.7513 13.4881C18.0975 14.7875 18.4197 17.2068 18.7899 18.0844C19.7274 18.0601 19.9486 17.9486 20.4246 18.0844C21.0448 18.2638 20.8573 19.3595 21.6362 19.0153C22.0353 18.8407 22.5882 17.2699 22.7036 16.8481C23.4825 14.0554 23.6556 11.0882 23.2085 8.22283C23.747 7.59254 24.4105 7.06407 25.1461 6.68105L25.0884 6.73923C26.5068 6.17197 28.1175 5.60471 29.5118 6.23015C30.5936 6.71498 31.2667 7.79617 32.0937 8.64463C33.666 10.2591 35.4065 11.0785 37.6518 11.0785C37.9211 12.6397 38.0894 15.1996 38.2288 16.659L39.3443 13.6772V13.6869C39.4404 13.5124 39.5125 13.333 39.5847 13.1585L39.6087 13.1051C39.7241 12.8142 39.8347 12.5282 39.9789 12.247C39.9789 12.247 39.9885 12.2567 39.9933 12.2567C40.8107 12.9209 41.9214 11.8009 41.2675 10.9767C41.1377 10.8118 40.9838 10.6664 40.8107 10.55C41.1857 10.8749 41.729 11.0155 42.1906 10.8506C42.657 10.6858 42.9984 10.1864 42.9407 9.69188C42.8974 9.35249 42.6474 9.06159 42.3349 8.94038C42.9743 8.95978 43.6138 8.79493 44.1571 8.4507C44.5129 8.22283 44.8543 7.86405 44.71 7.41315L44.7245 7.43739Z" fill="#072142"/>
<path d="M24.5882 4.81433C24.5882 4.81433 24.3767 4.95978 24.093 5.31371C23.8093 5.66279 23.4968 6.26884 23.3766 7.07367C23.3141 7.47608 23.2804 7.92213 23.2997 8.40212C23.3189 8.8821 23.3766 9.39118 23.4391 9.92935C23.4968 10.4675 23.5593 11.0396 23.5497 11.6311C23.5449 11.9269 23.5208 12.2323 23.4728 12.5378C23.4199 12.8384 23.3574 13.1632 23.1458 13.425C22.9775 13.6383 22.6842 13.745 22.4294 13.7014C22.1698 13.6674 21.9342 13.5365 21.7611 13.3571C21.4149 12.979 21.3091 12.4893 21.2082 12.0578L21.3187 12.0675C21.1601 12.465 20.9918 12.8626 20.737 13.1826C20.487 13.5074 20.1264 13.7256 19.7561 13.7789C19.5734 13.8032 19.3811 13.7789 19.2224 13.7062C19.0542 13.6335 18.934 13.5026 18.8474 13.362C18.7657 13.2214 18.7176 13.0614 18.7176 12.9062C18.7176 12.7511 18.7753 12.6008 18.8666 12.4941L18.9243 12.5426C18.5445 13.0178 18.1358 13.2796 17.8522 13.4299C17.7079 13.5026 17.5925 13.5511 17.5156 13.5802C17.4387 13.6093 17.3954 13.619 17.3954 13.6141C17.3954 13.6141 17.4338 13.5947 17.5108 13.5608C17.5877 13.5268 17.6983 13.4735 17.8377 13.3959C18.1118 13.2408 18.5109 12.9693 18.8715 12.499L18.9292 12.5475C18.7657 12.7414 18.7657 13.0662 18.9292 13.3232C19.0109 13.4493 19.1215 13.5656 19.2705 13.6286C19.4148 13.6917 19.5879 13.7111 19.7561 13.6868C20.0975 13.6383 20.4293 13.4299 20.6649 13.1244C20.9053 12.819 21.0639 12.4311 21.2226 12.0335L21.2899 11.8638L21.3332 12.0432C21.4341 12.4747 21.5399 12.945 21.8621 13.2844C22.0207 13.4493 22.2371 13.5608 22.4631 13.5947C22.689 13.6286 22.9246 13.5414 23.0737 13.3571C23.2564 13.1293 23.3237 12.819 23.3766 12.5281C23.4247 12.2323 23.4487 11.9317 23.4535 11.6408C23.4631 11.0542 23.4054 10.4918 23.3477 9.94874C23.29 9.41058 23.2323 8.89665 23.2227 8.41181C23.2083 7.92698 23.242 7.47123 23.3141 7.06882C23.4535 6.24945 23.7805 5.63855 24.0786 5.29432C24.3815 4.94524 24.6123 4.82403 24.6123 4.82403L24.5882 4.81433Z" fill="#374151"/>
<path d="M40.7529 9.1876C40.7529 9.1876 40.7433 9.20215 40.7145 9.22639C40.6808 9.25548 40.6423 9.28457 40.5894 9.32821C40.5366 9.37184 40.4644 9.42517 40.3779 9.47851C40.2914 9.53184 40.1904 9.59971 40.0702 9.65789C39.599 9.91001 38.8441 10.167 37.8825 10.1524C36.9305 10.1379 35.7718 9.85183 34.7236 9.12942C33.6611 8.42641 32.7091 7.36462 31.9157 6.13799C31.5119 5.52709 31.1801 4.89196 30.8195 4.31015C30.4589 3.72835 30.0646 3.19503 29.5983 2.77807C29.1367 2.36111 28.6078 2.06051 28.0741 1.93446C27.8049 1.86658 27.5404 1.86173 27.2856 1.87628C27.0308 1.90052 26.7952 1.96355 26.574 2.04597C26.1365 2.21566 25.7855 2.47747 25.5259 2.74413C25.2662 3.01079 25.0931 3.292 24.9777 3.52957C24.7662 4.01925 24.7662 4.3247 24.7469 4.31985C24.7469 4.31985 24.7469 4.30046 24.7469 4.26652C24.7518 4.22288 24.7566 4.16955 24.7662 4.10652C24.7854 3.96592 24.8383 3.76229 24.9393 3.51017C25.0499 3.26291 25.2181 2.97685 25.4826 2.69565C25.747 2.41929 26.098 2.14294 26.5452 1.96355C26.7711 1.87628 27.0163 1.8084 27.2808 1.77931C27.5404 1.75992 27.8241 1.76476 28.0982 1.83264C28.6559 1.9587 29.1992 2.26899 29.6752 2.6908C30.156 3.11261 30.5551 3.66047 30.9205 4.24228C31.2859 4.82893 31.6224 5.45921 32.0167 6.06526C32.8052 7.2822 33.7428 8.33429 34.7813 9.03246C35.8151 9.75001 36.945 10.0409 37.8825 10.0652C38.8297 10.0894 39.5798 9.84698 40.0509 9.61426C40.5269 9.37669 40.7481 9.17306 40.7577 9.1876H40.7529Z" fill="#374151"/>
<path d="M41.1279 6.87982C41.1279 6.87982 41.0702 6.938 40.95 7.01558C40.8298 7.098 40.6471 7.20466 40.4115 7.32102C40.1759 7.43738 39.8875 7.5489 39.5557 7.64586C39.2239 7.73798 38.8489 7.81071 38.4547 7.8398C38.0556 7.86889 37.6758 7.8495 37.3344 7.81071C36.993 7.76223 36.6901 7.6992 36.4401 7.61677C36.1901 7.5392 35.9929 7.46163 35.8631 7.3986C35.7333 7.33557 35.6612 7.29678 35.666 7.28709C35.6756 7.26769 35.9641 7.40345 36.4593 7.53435C36.7045 7.60223 37.0074 7.66041 37.344 7.6992C37.6806 7.73313 38.0508 7.74283 38.4402 7.71859C38.8297 7.68465 39.1951 7.61677 39.522 7.53435C39.849 7.44708 40.1375 7.34527 40.3683 7.2386C40.8395 7.03497 41.1087 6.85558 41.1183 6.87498L41.1279 6.87982Z" fill="#374151"/>
<path d="M32.0167 23.626C31.9687 23.4999 31.1561 23.8684 30.2618 23.432C29.3675 22.9957 29.0694 22.0793 28.954 22.123C28.8963 22.1327 28.8819 22.3896 29.0406 22.7629C29.1896 23.1314 29.5406 23.6066 30.0887 23.8732C30.6368 24.1399 31.1898 24.1108 31.5359 23.9847C31.8917 23.8635 32.0504 23.6793 32.0215 23.626H32.0167Z" fill="#072142"/>
<path d="M39.147 99.8277C39.147 99.5756 36.3872 81.496 35.3198 79.1882C34.4736 77.3604 27.699 75.935 20.4437 72.9823C12.6306 69.8018 3.57227 69.5836 3.57227 69.5836L15.0394 96.2738L39.147 99.8277Z" fill="#45B800"/>
<path d="M32.3296 63.2905L42.7486 65.6711C42.7486 65.6711 45.3161 65.5014 45.6911 65.5111C46.0662 65.5208 50.6915 66.6892 51.5666 67.0819C52.4416 67.4747 53.4561 67.7122 53.4561 67.7122L46.8932 68.8468L41.2197 71.8527L40.2629 71.6491L31.1757 72.0418L32.3344 63.2954L32.3296 63.2905Z" fill="#FFBF9D"/>
<path d="M54.0713 69.1909C53.9078 69.4576 53.6001 69.6176 53.2924 69.5642C53.2299 69.5545 53.1673 69.5352 53.1048 69.5109C52.6769 69.3315 52.7923 68.4297 52.7923 68.4297L50.7104 67.9013C50.7104 67.9013 46.4553 70.3642 45.0562 70.9848C39.5365 73.4235 39.676 70.1073 39.676 70.1073L42.7724 65.8698L46.9554 62.6602C46.9554 62.6602 46.7005 62.8493 47.0227 62.2093C47.3448 61.5693 48.5468 61.9232 48.5468 61.9232C48.7632 61.6129 49.5709 61.5645 49.5709 61.5645L52.9462 62.2529C53.6433 62.3935 54.2347 62.8444 54.5617 63.4796L55.807 65.9037C55.807 65.9037 56.4272 67.6249 56.2733 67.9982C56.0378 68.5655 55.4416 68.3812 55.4416 68.3812C55.4416 68.3812 55.1819 69.4576 54.8934 69.4673C54.605 69.4818 54.0665 69.1909 54.0665 69.1909H54.0713Z" fill="#FFBF9D"/>
<path d="M47.0948 65.3075C47.0948 65.3463 47.5516 65.3415 48.2776 65.4336C48.9988 65.5306 49.9941 65.7439 51.0134 66.1996C51.523 66.4227 51.9894 66.6796 52.3933 66.9414C52.7875 67.2081 53.201 67.4408 53.3068 67.7511C53.3597 67.9063 53.3164 68.0517 53.2347 68.1584C53.1529 68.265 53.0472 68.3281 52.9606 68.3572C52.7779 68.4154 52.6625 68.3572 52.6577 68.3766C52.6481 68.3766 52.7539 68.4784 52.9799 68.4396C53.0904 68.4202 53.2203 68.3572 53.326 68.2408C53.4366 68.1293 53.5135 67.916 53.451 67.7075C53.3933 67.499 53.2395 67.3293 53.0664 67.1887C52.8933 67.0481 52.7058 66.9075 52.4991 66.7718C52.0904 66.4954 51.6144 66.2287 51.0951 65.996C50.0518 65.5354 49.0276 65.3366 48.2872 65.2785C47.5468 65.2203 47.0852 65.2785 47.09 65.3027L47.0948 65.3075Z" fill="#FF9A6C"/>
<path d="M46.6719 67.4795C46.6719 67.5474 48.0614 67.6056 49.7586 67.8528C51.4559 68.0952 52.8069 68.4249 52.8262 68.3619C52.831 68.3328 52.504 68.2165 51.9559 68.0662C51.4078 67.9207 50.6433 67.7559 49.7875 67.6298C48.9317 67.5086 48.1528 67.4504 47.5854 67.4359C47.0181 67.4213 46.6719 67.4456 46.6719 67.4747V67.4795Z" fill="#FF9A6C"/>
<path d="M54.0617 69.0989C54.0617 69.0989 54.1002 68.9729 54.1338 68.7353C54.1675 68.5026 54.2107 68.1583 54.2204 67.7268C54.2204 67.5135 54.2204 67.2759 54.1867 67.0238C54.153 66.7669 54.0569 66.4953 53.9126 66.2481C53.6434 65.7535 53.2587 65.2299 52.7443 64.8178C52.2346 64.4106 51.7202 64.0615 51.1865 63.8481C50.6576 63.6348 50.1528 63.5524 49.7345 63.4942C49.3162 63.4409 48.9748 63.4215 48.7392 63.4118C48.5036 63.4021 48.3738 63.4021 48.3738 63.4166C48.3738 63.4506 48.8882 63.5136 49.7152 63.6445C50.1239 63.7172 50.6143 63.8191 51.1144 64.0324C51.6096 64.2409 52.1192 64.5899 52.6097 64.9827C53.1049 65.3802 53.4655 65.8602 53.7396 66.3402C54.0328 66.8008 54.0521 67.305 54.0665 67.722C54.0761 68.5607 54.0136 69.0892 54.0617 69.0892V69.0989Z" fill="#FF9A6C"/>
<path d="M49.6625 62.447C49.6625 62.481 50.1673 62.5343 50.9751 62.6991C51.7492 62.8882 52.9993 63.0531 53.6195 64.2021C54.3119 65.2591 54.8888 66.253 55.11 67.0433C55.3504 67.8335 55.2783 68.3572 55.3263 68.3572C55.336 68.3572 55.3696 68.2311 55.3744 67.9935C55.384 67.756 55.3648 67.4117 55.259 66.9996C55.0667 66.1657 54.4946 65.1379 53.7974 64.0761C53.6195 63.8094 53.4272 63.5524 53.1916 63.344C52.9608 63.1306 52.6819 62.9949 52.4223 62.8979C51.8982 62.6991 51.4078 62.6119 50.9991 62.544C50.1769 62.4179 49.6625 62.4131 49.6625 62.4422V62.447Z" fill="#FF9A6C"/>
<path d="M47.5469 69.8746C47.5469 69.8746 47.6238 69.831 47.7633 69.734C47.9171 69.6274 48.1191 69.4916 48.3739 69.3219C48.9124 68.9728 49.7057 68.4783 50.7443 67.9595H50.6962C51.3164 68.1292 52.0184 68.3086 52.7733 68.5074L52.7107 68.4104C52.6915 68.585 52.6867 68.7547 52.7107 68.9341C52.73 69.1086 52.7684 69.3025 52.9079 69.4674C52.98 69.5498 53.0858 69.6031 53.1771 69.6225C53.2685 69.6565 53.3694 69.671 53.4704 69.6662C53.6724 69.6565 53.8743 69.5643 54.0185 69.4189C54.057 69.385 54.0907 69.3413 54.1195 69.3025L54.1435 69.2686L54.1532 69.254V69.2444H54.158C54.1868 69.2347 53.9128 69.3122 54.0282 69.2783L54.0907 69.3122C54.1772 69.3559 54.2637 69.3947 54.3551 69.4334C54.4465 69.4722 54.5378 69.5062 54.6388 69.5304C54.6869 69.545 54.7397 69.5546 54.7926 69.5595C54.8455 69.5643 54.908 69.574 54.9898 69.5401C55.1148 69.4674 55.1677 69.3656 55.2205 69.2783C55.2686 69.1862 55.3119 69.0892 55.3504 68.9971C55.4273 68.8031 55.485 68.6092 55.5379 68.4056L55.4081 68.4783C55.6773 68.551 56.0043 68.5123 56.2158 68.2747C56.312 68.1632 56.3937 68.0274 56.3985 67.8577C56.4033 67.7074 56.3841 67.5765 56.3601 67.4408C56.2543 66.9074 56.0908 66.3887 55.9081 65.8602V65.8456C55.6965 65.4335 55.4706 64.9972 55.2446 64.5511C55.1052 64.2748 54.9609 64.0033 54.8215 63.7318C54.682 63.47 54.557 63.1742 54.3503 62.9318C54.1484 62.6894 53.9031 62.4954 53.6291 62.3548C53.3598 62.2094 53.0473 62.1512 52.7733 62.0979C51.653 61.8748 50.5904 61.6567 49.5903 61.4579H49.5759H49.5663C49.3643 61.4773 49.1768 61.5064 48.9893 61.5597C48.8066 61.6179 48.6143 61.6809 48.4701 61.8603L48.5903 61.8312C48.2441 61.6518 47.8258 61.613 47.4892 61.7973C47.1526 61.9815 46.9796 62.3063 46.8738 62.6215L46.9026 62.5779C45.7006 63.4942 44.7198 64.2408 44.0226 64.779C43.7005 65.0311 43.4408 65.2348 43.2437 65.3851C43.0658 65.5257 42.9793 65.6032 42.9841 65.6081C42.9889 65.6129 43.0899 65.5499 43.2726 65.419C43.4745 65.2735 43.7437 65.0845 44.0755 64.8469C44.7871 64.3281 45.7824 63.596 46.9988 62.7088L47.018 62.6942L47.0276 62.6651C47.1238 62.3888 47.2921 62.093 47.5661 61.9524C47.8354 61.8021 48.2008 61.8361 48.4941 61.9912L48.5662 62.03L48.6143 61.967C48.696 61.8603 48.8643 61.7876 49.0326 61.7391C49.2009 61.6906 49.3884 61.6615 49.5711 61.6518H49.5471C50.5423 61.8555 51.6097 62.0785 52.7252 62.3063C53.0088 62.3645 53.2781 62.413 53.5233 62.5439C53.7685 62.67 53.9945 62.8494 54.1772 63.0675C54.3599 63.2809 54.4753 63.5572 54.6195 63.8287C54.759 64.1002 54.8984 64.3717 55.0426 64.6481C55.2686 65.0893 55.4946 65.5305 55.7062 65.9426V65.9281C55.8792 66.442 56.0475 66.9656 56.1485 67.4699C56.1725 67.5959 56.1918 67.7268 56.187 67.8383C56.187 67.9353 56.1341 68.0371 56.062 68.1195C55.9225 68.2844 55.6725 68.3183 55.4658 68.265L55.36 68.2407L55.3359 68.3426C55.2879 68.5316 55.2302 68.7256 55.1629 68.9098C55.0955 69.0795 55.0042 69.288 54.9032 69.351C54.9032 69.351 54.8599 69.3607 54.8167 69.351C54.7734 69.351 54.7301 69.3365 54.6869 69.3268C54.6003 69.3025 54.5138 69.2734 54.4272 69.2395C54.3407 69.2056 54.2589 69.1668 54.1772 69.128L54.1147 69.0989C54.2301 69.065 53.956 69.1425 53.9849 69.1328V69.1425L53.9753 69.1571L53.956 69.1813C53.932 69.2153 53.908 69.2492 53.8743 69.2734C53.7589 69.3898 53.605 69.4625 53.4464 69.4722C53.3695 69.4771 53.2925 69.4674 53.2156 69.4383C53.1339 69.4189 53.0762 69.3898 53.0281 69.3413C52.8454 69.1134 52.8454 68.7353 52.8742 68.4347V68.3571L52.8117 68.3377C52.052 68.1486 51.3501 67.9789 50.725 67.8238H50.6962H50.6721C49.6288 68.3668 48.8451 68.8807 48.321 69.254C48.0614 69.4431 47.8594 69.5934 47.7296 69.7001C47.5998 69.8068 47.5373 69.8649 47.5373 69.8698L47.5469 69.8746Z" fill="#FF9A6C"/>
<path d="M34.9256 63.6007L21.1313 60.8081L18.8475 49.875L14.102 36.4645C10.8373 37.822 7.80343 40.7407 8.00056 44.5321C8.29385 50.1465 9.60164 62.1947 9.90455 65.2977C10.2988 69.3509 11.7124 72.1629 17.5734 72.9872C23.4584 73.8162 33.3822 73.6465 33.3822 73.6465C33.3822 73.6465 34.3583 74.7277 35.5939 74.1459C37.1854 73.3944 37.0508 71.8721 37.0508 71.8721L37.1758 64.2456C37.1758 64.2456 35.8584 62.665 34.9304 63.6007H34.9256Z" fill="#374151"/>
<path d="M14.7943 37.3809C14.7702 37.4051 15.203 37.8221 15.7847 38.5833C16.0732 38.9663 16.4002 39.4366 16.7223 39.9844C17.0396 40.5323 17.357 41.1577 17.6406 41.8317C18.1984 43.1892 18.5013 44.4886 18.6551 45.4437C18.8138 46.394 18.8427 46.9952 18.8859 46.9903C18.9004 46.9903 18.9004 46.84 18.8955 46.5685C18.8955 46.297 18.8619 45.9043 18.8042 45.4194C18.6888 44.4546 18.4003 43.1262 17.833 41.7492C17.5445 41.0656 17.2175 40.4353 16.8858 39.8826C16.5492 39.3348 16.203 38.8693 15.9001 38.4911C15.5876 38.1178 15.3184 37.8366 15.1212 37.6524C14.9193 37.4681 14.8039 37.376 14.7943 37.3857V37.3809Z" fill="#072142"/>
<path d="M16.1648 65.6952C16.2032 65.7049 16.2898 65.2977 16.5542 64.6916C16.8187 64.0856 17.2995 63.2953 18.0255 62.602C18.7515 61.9087 19.5592 61.4626 20.1747 61.2299C20.7901 60.9923 21.1988 60.9293 21.1892 60.8905C21.1892 60.876 21.0834 60.8808 20.8959 60.9051C20.7084 60.9244 20.4439 60.9875 20.1218 61.0893C19.7996 61.1911 19.4294 61.3559 19.04 61.5741C18.6553 61.802 18.2563 62.0929 17.8764 62.4468C17.5062 62.8056 17.1985 63.1983 16.9485 63.5716C16.7081 63.9498 16.5254 64.3134 16.41 64.6334C16.2898 64.9486 16.2176 65.2152 16.1888 65.4043C16.1551 65.5886 16.1455 65.6952 16.1551 65.6952H16.1648Z" fill="#072142"/>
<path d="M42.5173 72.6138C42.5942 73.0356 42.9837 73.3217 43.4068 73.2635L59.932 71.0139L74.0869 69.5981L74.308 68.3618L60.8215 69.1957L43.1952 71.6732C42.7481 71.7363 42.4403 72.1629 42.5221 72.6138H42.5173Z" fill="#E5E7EB"/>
<path d="M70.0867 47.029L60.509 68.9679C60.1244 69.8406 60.6869 70.8733 61.5091 70.8103L78.3661 69.1715C78.7411 69.1424 79.0777 68.8806 79.2508 68.4782L88.838 46.7236C89.0303 46.2776 88.7659 45.7491 88.3476 45.7394L71.0579 46.3406C70.654 46.3309 70.2742 46.5975 70.0867 47.0242V47.029Z" fill="#E5E7EB"/>
<path d="M70.0868 47.0291C70.0868 47.0291 70.106 46.9515 70.1877 46.8206C70.2695 46.6945 70.4137 46.5006 70.6926 46.3842C70.832 46.3212 71.0051 46.3115 71.183 46.3067C71.3657 46.297 71.5628 46.2873 71.7744 46.2824C72.2023 46.263 72.6975 46.2436 73.2505 46.2194C75.4814 46.1321 78.6932 46.0061 82.655 45.8509C83.6503 45.8121 84.6888 45.7733 85.7706 45.7345C86.3139 45.7152 86.8668 45.6958 87.4294 45.6715C87.7131 45.6618 87.9967 45.6521 88.2804 45.6376C88.4247 45.6182 88.6314 45.6764 88.7468 45.7976C88.8718 45.9139 88.9535 46.0691 88.9872 46.2291C89.0208 46.3939 89.0112 46.5636 88.9487 46.7236L88.7708 47.1406C88.6506 47.4169 88.5304 47.6884 88.4054 47.9696C88.1602 48.5272 87.915 49.0896 87.6602 49.6666C87.1553 50.8156 86.6409 51.9938 86.1072 53.2059C85.0446 55.6252 83.9243 58.1657 82.7656 60.8032C82.1838 62.122 81.5972 63.4601 80.9962 64.8225C80.6981 65.5013 80.3952 66.1898 80.0923 66.8782C79.9385 67.2225 79.7894 67.5667 79.6355 67.9158L79.4048 68.4394C79.3326 68.614 79.2317 68.8127 79.0826 68.9582C78.9384 69.1085 78.7461 69.2248 78.5393 69.2782C78.3181 69.3218 78.1547 69.3218 77.9575 69.3461C77.5825 69.3848 77.2075 69.4188 76.8373 69.4576C76.092 69.5303 75.3516 69.603 74.616 69.6709C73.1447 69.8115 71.6975 69.9521 70.2743 70.0927C67.4279 70.3691 64.6825 70.6309 62.0718 70.883L61.5813 70.9315C61.4179 70.946 61.2159 70.9412 61.0525 70.8684C60.7111 70.7278 60.4707 70.4272 60.3601 70.1024C60.2399 69.7727 60.2399 69.4091 60.3457 69.0842C60.4659 68.7643 60.5957 68.4976 60.7207 68.2018C61.2256 67.0528 61.7112 65.9425 62.1824 64.8613C63.1295 62.7087 64.0094 60.7014 64.8124 58.8688C66.423 55.2179 67.7308 52.2604 68.6396 50.1999C69.0915 49.1866 69.4473 48.3963 69.6925 47.8484C69.8127 47.5866 69.9041 47.3878 69.9714 47.2375C70.0387 47.1018 70.0772 47.0339 70.0772 47.0339C70.0772 47.0339 70.0531 47.1066 69.9954 47.2472C69.9329 47.3975 69.8464 47.6012 69.7406 47.8678C69.505 48.4205 69.1636 49.2157 68.7309 50.2387C67.8414 52.3041 66.5577 55.2713 64.9758 58.9366C64.1777 60.7742 63.3074 62.7814 62.3699 64.9389C61.8987 66.0201 61.4179 67.1352 60.9178 68.2843C60.7976 68.5703 60.6534 68.8661 60.5524 69.1473C60.4611 69.4236 60.4659 69.7388 60.5669 70.0151C60.663 70.2963 60.8698 70.5388 61.1342 70.6454C61.2688 70.7036 61.4034 70.7084 61.5621 70.6939L62.0525 70.6454C64.6681 70.3885 67.4135 70.1218 70.2551 69.8406C71.6782 69.7 73.1255 69.5594 74.5967 69.4188C75.3323 69.3461 76.0728 69.2733 76.818 69.2006C77.1883 69.1618 77.5633 69.1279 77.9383 69.0891C78.1162 69.0697 78.3326 69.06 78.4816 69.0261C78.6403 68.9873 78.7893 68.8952 78.9047 68.774C79.0297 68.6479 79.1019 68.5073 79.1788 68.3279L79.4096 67.8043C79.5634 67.4552 79.7125 67.111 79.8663 66.7667C80.1692 66.0783 80.4721 65.3946 80.7702 64.711C81.3713 63.3535 81.9626 62.0105 82.5396 60.6966C83.7031 58.0639 84.8234 55.5234 85.8908 53.1041C86.4245 51.8968 86.9486 50.7138 87.4534 49.5696C87.7083 48.9975 87.9583 48.4302 88.2035 47.8775C88.3285 47.6012 88.4487 47.3248 88.5689 47.0533L88.7468 46.6509C88.7949 46.5297 88.8045 46.3988 88.7756 46.2727C88.7227 46.0206 88.5304 45.8121 88.2708 45.8461C87.9823 45.8558 87.6986 45.8655 87.4198 45.8751C86.8572 45.8945 86.3043 45.9139 85.761 45.9285C84.6792 45.9624 83.6358 45.9964 82.6454 46.0303C78.6836 46.1515 75.4718 46.2485 73.2409 46.3163C72.6879 46.3309 72.1927 46.3454 71.7648 46.3551C71.5532 46.36 71.3561 46.3648 71.1734 46.3697C70.9907 46.3697 70.8368 46.3697 70.7022 46.4327C70.433 46.5394 70.2839 46.7188 70.1974 46.8351C70.1108 46.9563 70.082 47.0291 70.0772 47.0291H70.0868Z" fill="#072142"/>
<path d="M71.8512 46.4375C71.9089 46.4763 69.5962 51.9453 66.6826 58.6554C63.7689 65.3704 61.3601 70.7812 61.2976 70.7424C61.2399 70.7036 63.5525 65.2346 66.4662 58.5245C69.3799 51.8144 71.7887 46.4036 71.8512 46.4375Z" fill="#072142"/>
<path d="M75.0004 57.7391C74.4331 58.7863 74.3562 59.9257 74.8322 60.2893C75.3082 60.653 76.1496 60.1002 76.7169 59.053C77.2843 58.0057 77.3612 56.8664 76.8852 56.5028C76.4092 56.1391 75.5678 56.6918 75.0004 57.7391Z" fill="white"/>
<path d="M19.7705 51.5963C19.7705 51.5963 19.7849 51.6496 19.8042 51.7514C19.8234 51.8678 19.8523 52.0181 19.8859 52.2169C19.9532 52.6387 20.0494 53.2399 20.1744 54.0205C20.4148 55.6107 20.7706 57.9088 21.2129 60.7985L21.1504 60.7354C24.8334 61.4724 29.5453 62.413 34.9543 63.4942L34.8533 63.5232C35.0168 63.3729 35.2236 63.2372 35.464 63.2032C35.7044 63.1742 35.9448 63.2275 36.1563 63.3196C36.589 63.5087 36.9448 63.819 37.2622 64.1729L37.291 64.202V64.2456C37.2526 66.6601 37.2141 69.2201 37.1708 71.8721V71.8576C37.1901 72.3182 37.0699 72.7594 36.8535 73.1618C36.6275 73.5593 36.2861 73.8987 35.8871 74.1218C35.4976 74.3593 35.0024 74.4951 34.5264 74.403C34.0504 74.3108 33.6321 74.0684 33.2859 73.7193L33.3821 73.7581C31.8291 73.7775 30.1847 73.7775 28.5163 73.7533C25.5017 73.7096 22.5592 73.5981 19.7224 73.3412C18.3089 73.2054 16.9097 73.0551 15.5731 72.6963C14.2461 72.3376 12.9719 71.7509 12.0007 70.8297C11.5103 70.3691 11.1305 69.8213 10.8179 69.254C10.5102 68.677 10.3131 68.0662 10.1496 67.4553C9.85152 66.2286 9.7794 65.0068 9.65439 63.8481C9.42361 61.5209 9.20725 59.3488 9.01012 57.3658C8.62547 53.4047 8.34661 50.1902 8.18794 47.9697C8.10621 46.8594 8.05813 45.9964 8.02928 45.4098C8.01966 45.1237 8.01004 44.9055 8.00043 44.7407C7.99562 44.5904 8.00043 44.5128 8.00043 44.5128C8.00043 44.5128 8.01485 44.5904 8.02447 44.7407C8.03889 44.9007 8.05332 45.1237 8.07736 45.4049C8.12544 46.0013 8.19756 46.8594 8.2841 47.96C8.47162 50.1806 8.77933 53.3853 9.18321 57.3464C9.38995 59.3294 9.61593 61.4966 9.85633 63.8238C9.98615 64.9874 10.0583 66.1995 10.3564 67.3971C10.5198 67.9886 10.717 68.5849 11.0103 69.1425C11.3132 69.6903 11.6834 70.2188 12.1498 70.6552C13.0873 71.5376 14.323 72.1048 15.626 72.4588C16.9338 72.8078 18.3233 72.9581 19.7369 73.0891C22.564 73.3412 25.5017 73.4478 28.5115 73.4963C30.1751 73.5206 31.8195 73.5254 33.3677 73.506H33.4206L33.4638 73.5448C33.7571 73.8454 34.1562 74.0733 34.5649 74.1508C34.9784 74.2284 35.3918 74.1169 35.7573 73.8987C36.1275 73.6902 36.4304 73.3848 36.6323 73.0309C36.8295 72.6769 36.9352 72.2551 36.9208 71.8673V71.8527C36.9689 69.2007 37.0122 66.6407 37.0506 64.2262L37.0795 64.3038C36.791 63.979 36.44 63.6735 36.0602 63.5087C35.8678 63.4263 35.6707 63.3875 35.4832 63.4069C35.2957 63.436 35.137 63.5378 34.9976 63.6638L34.9495 63.7075L34.8966 63.6978C29.4924 62.5924 24.7853 61.6275 21.1072 60.8712L21.0543 60.8615L21.0446 60.8082C20.6312 57.9137 20.3042 55.6107 20.0782 54.0205C19.9725 53.2399 19.8907 52.6338 19.833 52.212C19.809 52.0132 19.7897 51.8581 19.7753 51.7466C19.7657 51.6399 19.7609 51.5866 19.7609 51.5866L19.7705 51.5963Z" fill="#072142"/>
</g>
<defs>
<clipPath id="clip0_48_3543">
<rect width="132" height="141" fill="white"/>
</clipPath>
</defs>
</svg>
