<svg width="28" height="28" viewBox="0 0 28 28" fill="none" xmlns="http://www.w3.org/2000/svg">
<path d="M4 0.5H24C25.933 0.5 27.5 2.067 27.5 4V24C27.5 25.933 25.933 27.5 24 27.5H4C2.067 27.5 0.5 25.933 0.5 24V4C0.5 2.067 2.067 0.5 4 0.5Z" fill="url(#paint0_radial_44_7516)"/>
<path d="M4 0.5H24C25.933 0.5 27.5 2.067 27.5 4V24C27.5 25.933 25.933 27.5 24 27.5H4C2.067 27.5 0.5 25.933 0.5 24V4C0.5 2.067 2.067 0.5 4 0.5Z" stroke="#FF7E0C"/>
<mask id="mask0_44_7516" style="mask-type:alpha" maskUnits="userSpaceOnUse" x="6" y="6" width="16" height="16">
<rect x="6" y="6" width="16" height="16" fill="white"/>
</mask>
<g mask="url(#mask0_44_7516)">
<path d="M13.9667 17.9999C14.2 17.9999 14.3973 17.9194 14.5584 17.7583C14.7195 17.5971 14.8 17.3999 14.8 17.1666C14.8 16.9333 14.7195 16.736 14.5584 16.5749C14.3973 16.4138 14.2 16.3333 13.9667 16.3333C13.7334 16.3333 13.5362 16.4138 13.375 16.5749C13.2139 16.736 13.1334 16.9333 13.1334 17.1666C13.1334 17.3999 13.2139 17.5971 13.375 17.7583C13.5362 17.9194 13.7334 17.9999 13.9667 17.9999ZM13.3667 15.4333H14.6C14.6 15.0666 14.6417 14.7777 14.725 14.5666C14.8084 14.3555 15.0445 14.0666 15.4334 13.6999C15.7223 13.411 15.95 13.136 16.1167 12.8749C16.2834 12.6138 16.3667 12.2999 16.3667 11.9333C16.3667 11.311 16.1389 10.8333 15.6834 10.4999C15.2278 10.1666 14.6889 9.99992 14.0667 9.99992C13.4334 9.99992 12.9195 10.1666 12.525 10.4999C12.1306 10.8333 11.8556 11.2333 11.7 11.6999L12.8 12.1333C12.8556 11.9333 12.9806 11.7166 13.175 11.4833C13.3695 11.2499 13.6667 11.1333 14.0667 11.1333C14.4223 11.1333 14.6889 11.2305 14.8667 11.4249C15.0445 11.6194 15.1334 11.8333 15.1334 12.0666C15.1334 12.2888 15.0667 12.4971 14.9334 12.6916C14.8 12.886 14.6334 13.0666 14.4334 13.2333C13.9445 13.6666 13.6445 13.9944 13.5334 14.2166C13.4223 14.4388 13.3667 14.8444 13.3667 15.4333ZM14 20.6666C13.0778 20.6666 12.2112 20.4916 11.4 20.1416C10.5889 19.7916 9.88337 19.3166 9.28337 18.7166C8.68337 18.1166 8.20837 17.411 7.85837 16.5999C7.50837 15.7888 7.33337 14.9221 7.33337 13.9999C7.33337 13.0777 7.50837 12.211 7.85837 11.3999C8.20837 10.5888 8.68337 9.88325 9.28337 9.28325C9.88337 8.68325 10.5889 8.20825 11.4 7.85825C12.2112 7.50825 13.0778 7.33325 14 7.33325C14.9223 7.33325 15.7889 7.50825 16.6 7.85825C17.4112 8.20825 18.1167 8.68325 18.7167 9.28325C19.3167 9.88325 19.7917 10.5888 20.1417 11.3999C20.4917 12.211 20.6667 13.0777 20.6667 13.9999C20.6667 14.9221 20.4917 15.7888 20.1417 16.5999C19.7917 17.411 19.3167 18.1166 18.7167 18.7166C18.1167 19.3166 17.4112 19.7916 16.6 20.1416C15.7889 20.4916 14.9223 20.6666 14 20.6666Z" fill="white"/>
</g>
<defs>
<radialGradient id="paint0_radial_44_7516" cx="0" cy="0" r="1" gradientUnits="userSpaceOnUse" gradientTransform="translate(14 14) rotate(90) scale(14)">
<stop offset="0.644239" stop-color="#FF7E0C"/>
<stop offset="1" stop-color="#FE6400"/>
</radialGradient>
</defs>
</svg>
