<svg width="28" height="28" viewBox="0 0 28 28" fill="none" xmlns="http://www.w3.org/2000/svg">
<path d="M4 0.5H24C25.933 0.5 27.5 2.067 27.5 4V24C27.5 25.933 25.933 27.5 24 27.5H4C2.067 27.5 0.5 25.933 0.5 24V4C0.5 2.067 2.067 0.5 4 0.5Z" fill="url(#paint0_radial_28_9286)"/>
<path d="M4 0.5H24C25.933 0.5 27.5 2.067 27.5 4V24C27.5 25.933 25.933 27.5 24 27.5H4C2.067 27.5 0.5 25.933 0.5 24V4C0.5 2.067 2.067 0.5 4 0.5Z" stroke="#FF7E0C"/>
<mask id="mask0_28_9286" style="mask-type:alpha" maskUnits="userSpaceOnUse" x="6" y="6" width="16" height="16">
<rect x="6" y="6" width="16" height="16" fill="white"/>
</mask>
<g mask="url(#mask0_28_9286)">
<path d="M10 17.3333H14.6667V16H10V17.3333ZM16.6667 17.3333H18V10.6667H16.6667V17.3333ZM10 14.6667H14.6667V13.3333H10V14.6667ZM10 12H14.6667V10.6667H10V12ZM8.66671 20C8.30004 20 7.98615 19.8694 7.72504 19.6083C7.46393 19.3472 7.33337 19.0333 7.33337 18.6667V9.33333C7.33337 8.96667 7.46393 8.65278 7.72504 8.39167C7.98615 8.13056 8.30004 8 8.66671 8H19.3334C19.7 8 20.0139 8.13056 20.275 8.39167C20.5362 8.65278 20.6667 8.96667 20.6667 9.33333V18.6667C20.6667 19.0333 20.5362 19.3472 20.275 19.6083C20.0139 19.8694 19.7 20 19.3334 20H8.66671Z" fill="white"/>
</g>
<defs>
<radialGradient id="paint0_radial_28_9286" cx="0" cy="0" r="1" gradientUnits="userSpaceOnUse" gradientTransform="translate(14 14) rotate(90) scale(14)">
<stop offset="0.644239" stop-color="#FF7E0C"/>
<stop offset="1" stop-color="#FE6400"/>
</radialGradient>
</defs>
</svg>
