<svg width="20" height="20" viewBox="0 0 20 20" fill="none" xmlns="http://www.w3.org/2000/svg">
<path d="M18 17.9999V12.14C18 9.26004 17.38 7.06006 14.0201 7.06006C12.4001 7.06006 11.3201 7.94005 10.8801 8.78004H10.8401V7.32006H7.66014V17.9999H10.9801V12.7C10.9801 11.3 11.2401 9.96003 12.9601 9.96003C14.6601 9.96003 14.6801 11.54 14.6801 12.78V17.9799H18V17.9999Z" fill="#0A66C2"/>
<path d="M2.2602 7.32007H5.58016V18H2.2602V7.32007Z" fill="#0A66C2"/>
<path d="M3.91996 2C2.85997 2 1.99998 2.85999 1.99998 3.91998C1.99998 4.97997 2.85997 5.85996 3.91996 5.85996C4.97995 5.85996 5.83994 4.97997 5.83994 3.91998C5.83994 2.85999 4.97995 2 3.91996 2Z" fill="#0A66C2"/>
</svg>
