<svg width="28" height="28" viewBox="0 0 28 28" fill="none" xmlns="http://www.w3.org/2000/svg">
<path d="M4 0.5H24C25.933 0.5 27.5 2.067 27.5 4V24C27.5 25.933 25.933 27.5 24 27.5H4C2.067 27.5 0.5 25.933 0.5 24V4C0.5 2.067 2.067 0.5 4 0.5Z" fill="url(#paint0_radial_28_9563)"/>
<path d="M4 0.5H24C25.933 0.5 27.5 2.067 27.5 4V24C27.5 25.933 25.933 27.5 24 27.5H4C2.067 27.5 0.5 25.933 0.5 24V4C0.5 2.067 2.067 0.5 4 0.5Z" stroke="#FF7E0C"/>
<mask id="mask0_28_9563" style="mask-type:alpha" maskUnits="userSpaceOnUse" x="6" y="6" width="16" height="16">
<rect x="6" y="6" width="16" height="16" fill="white"/>
</mask>
<g mask="url(#mask0_28_9563)">
<path d="M10.6667 12H17.3333V10.6667H10.6667V12ZM9.33333 20C8.96667 20 8.65278 19.8694 8.39167 19.6083C8.13056 19.3472 8 19.0333 8 18.6667V9.33333C8 8.96667 8.13056 8.65278 8.39167 8.39167C8.65278 8.13056 8.96667 8 9.33333 8H18.6667C19.0333 8 19.3472 8.13056 19.6083 8.39167C19.8694 8.65278 20 8.96667 20 9.33333V13.6333C19.7444 13.1333 19.3778 12.7361 18.9 12.4417C18.4222 12.1472 17.9 12 17.3333 12C16.8333 12 16.3667 12.1167 15.9333 12.35C15.5 12.5833 15.1389 12.9111 14.85 13.3333H10.6667V14.6667H14.35C14.3278 14.8889 14.3278 15.1111 14.35 15.3333C14.3722 15.5556 14.4222 15.7778 14.5 16H10.6667V17.3333H13.2833C13.0722 17.5778 12.9167 17.8472 12.8167 18.1417C12.7167 18.4361 12.6667 18.7444 12.6667 19.0667V20H9.33333ZM14 20V19.0667C14 18.8 14.0694 18.5528 14.2083 18.325C14.3472 18.0972 14.5444 17.9333 14.8 17.8333C15.2 17.6667 15.6139 17.5417 16.0417 17.4583C16.4694 17.375 16.9 17.3333 17.3333 17.3333C17.7667 17.3333 18.1972 17.375 18.625 17.4583C19.0528 17.5417 19.4667 17.6667 19.8667 17.8333C20.1222 17.9333 20.3194 18.0972 20.4583 18.325C20.5972 18.5528 20.6667 18.8 20.6667 19.0667V20H14ZM17.3333 16.6667C16.8667 16.6667 16.4722 16.5056 16.15 16.1833C15.8278 15.8611 15.6667 15.4667 15.6667 15C15.6667 14.5333 15.8278 14.1389 16.15 13.8167C16.4722 13.4944 16.8667 13.3333 17.3333 13.3333C17.8 13.3333 18.1944 13.4944 18.5167 13.8167C18.8389 14.1389 19 14.5333 19 15C19 15.4667 18.8389 15.8611 18.5167 16.1833C18.1944 16.5056 17.8 16.6667 17.3333 16.6667Z" fill="white"/>
</g>
<defs>
<radialGradient id="paint0_radial_28_9563" cx="0" cy="0" r="1" gradientUnits="userSpaceOnUse" gradientTransform="translate(14 14) rotate(90) scale(14)">
<stop offset="0.644239" stop-color="#FF7E0C"/>
<stop offset="1" stop-color="#FE6400"/>
</radialGradient>
</defs>
</svg>
