<svg width="28" height="28" viewBox="0 0 28 28" fill="none" xmlns="http://www.w3.org/2000/svg">
<path d="M4 0.5H24C25.933 0.5 27.5 2.067 27.5 4V24C27.5 25.933 25.933 27.5 24 27.5H4C2.067 27.5 0.5 25.933 0.5 24V4C0.5 2.067 2.067 0.5 4 0.5Z" fill="url(#paint0_radial_28_10150)"/>
<path d="M4 0.5H24C25.933 0.5 27.5 2.067 27.5 4V24C27.5 25.933 25.933 27.5 24 27.5H4C2.067 27.5 0.5 25.933 0.5 24V4C0.5 2.067 2.067 0.5 4 0.5Z" stroke="#FF7E0C"/>
<mask id="mask0_28_10150" style="mask-type:alpha" maskUnits="userSpaceOnUse" x="6" y="6" width="16" height="16">
<rect x="6" y="6" width="16" height="16" fill="white"/>
</mask>
<g mask="url(#mask0_28_10150)">
<path d="M7.99996 20.6667C7.63329 20.6667 7.3194 20.5361 7.05829 20.275C6.79718 20.0139 6.66663 19.7 6.66663 19.3334V12H7.99996V19.3334H19.3333V20.6667H7.99996ZM10.6666 18C10.3 18 9.98607 17.8695 9.72496 17.6084C9.46385 17.3472 9.33329 17.0334 9.33329 16.6667V9.33335H12.6666V8.00002C12.6666 7.63335 12.7972 7.31946 13.0583 7.05835C13.3194 6.79724 13.6333 6.66669 14 6.66669H16.6666C17.0333 6.66669 17.3472 6.79724 17.6083 7.05835C17.8694 7.31946 18 7.63335 18 8.00002V9.33335H21.3333V16.6667C21.3333 17.0334 21.2027 17.3472 20.9416 17.6084C20.6805 17.8695 20.3666 18 20 18H10.6666ZM14 9.33335H16.6666V8.00002H14V9.33335Z" fill="white"/>
</g>
<defs>
<radialGradient id="paint0_radial_28_10150" cx="0" cy="0" r="1" gradientUnits="userSpaceOnUse" gradientTransform="translate(14 14) rotate(90) scale(14)">
<stop offset="0.644239" stop-color="#FF7E0C"/>
<stop offset="1" stop-color="#FE6400"/>
</radialGradient>
</defs>
</svg>
