<svg width="28" height="28" viewBox="0 0 28 28" fill="none" xmlns="http://www.w3.org/2000/svg">
<path d="M4 0.5H24C25.933 0.5 27.5 2.067 27.5 4V24C27.5 25.933 25.933 27.5 24 27.5H4C2.067 27.5 0.5 25.933 0.5 24V4C0.5 2.067 2.067 0.5 4 0.5Z" fill="url(#paint0_radial_28_10132)"/>
<path d="M4 0.5H24C25.933 0.5 27.5 2.067 27.5 4V24C27.5 25.933 25.933 27.5 24 27.5H4C2.067 27.5 0.5 25.933 0.5 24V4C0.5 2.067 2.067 0.5 4 0.5Z" stroke="#FF7E0C"/>
<mask id="mask0_28_10132" style="mask-type:alpha" maskUnits="userSpaceOnUse" x="6" y="6" width="16" height="16">
<rect x="6" y="6" width="16" height="16" fill="white"/>
</mask>
<g mask="url(#mask0_28_10132)">
<path d="M15.8856 16.8284L14 18.714C13.3479 19.3661 12.5622 19.6922 11.643 19.6922C10.7238 19.6922 9.93809 19.3661 9.28598 18.714C8.63387 18.0619 8.30781 17.2762 8.30781 16.357C8.30781 15.4378 8.63387 14.6521 9.28598 14L11.1716 12.1144L12.1144 13.0572L10.2288 14.9428C9.83595 15.3356 9.63953 15.807 9.63953 16.357C9.63953 16.907 9.83595 17.3784 10.2288 17.7712C10.6216 18.164 11.093 18.3605 11.643 18.3605C12.193 18.3605 12.6644 18.164 13.0572 17.7712L14.9428 15.8856L15.8856 16.8284ZM12.5858 16.357L11.643 15.4142L15.4142 11.6429L16.357 12.5858L12.5858 16.357ZM16.8284 15.8856L15.8856 14.9428L17.7713 13.0572C18.1641 12.6643 18.3605 12.1929 18.3605 11.6429C18.3605 11.093 18.1641 10.6216 17.7713 10.2287C17.3784 9.8359 16.907 9.63948 16.357 9.63948C15.8071 9.63948 15.3357 9.8359 14.9428 10.2287L13.0572 12.1144L12.1144 11.1715L14 9.28593C14.6521 8.63382 15.4378 8.30776 16.357 8.30776C17.2763 8.30776 18.062 8.63382 18.7141 9.28593C19.3662 9.93804 19.6922 10.7237 19.6922 11.6429C19.6922 12.5622 19.3662 13.3479 18.7141 14L16.8284 15.8856Z" fill="white"/>
</g>
<defs>
<radialGradient id="paint0_radial_28_10132" cx="0" cy="0" r="1" gradientUnits="userSpaceOnUse" gradientTransform="translate(14 14) rotate(90) scale(14)">
<stop offset="0.644239" stop-color="#FF7E0C"/>
<stop offset="1" stop-color="#FE6400"/>
</radialGradient>
</defs>
</svg>
