<svg width="20" height="20" viewBox="0 0 20 20" fill="none" xmlns="http://www.w3.org/2000/svg">
<mask id="mask0_141_2318" style="mask-type:alpha" maskUnits="userSpaceOnUse" x="0" y="0" width="20" height="20">
<rect width="20" height="20" fill="#D9D9D9"/>
</mask>
<g mask="url(#mask0_141_2318)">
<path d="M3.33334 17.5V9.6875L1.83334 10.8333L0.833344 9.5L10 2.5L19.1667 9.5L18.1667 10.8125L16.6667 9.6875V17.5H3.33334ZM6.66668 12.5C6.43057 12.5 6.23265 12.4201 6.07293 12.2604C5.9132 12.1007 5.83334 11.9028 5.83334 11.6667C5.83334 11.4306 5.9132 11.2326 6.07293 11.0729C6.23265 10.9132 6.43057 10.8333 6.66668 10.8333C6.90279 10.8333 7.10071 10.9132 7.26043 11.0729C7.42015 11.2326 7.50001 11.4306 7.50001 11.6667C7.50001 11.9028 7.42015 12.1007 7.26043 12.2604C7.10071 12.4201 6.90279 12.5 6.66668 12.5ZM10 12.5C9.7639 12.5 9.56598 12.4201 9.40626 12.2604C9.24654 12.1007 9.16668 11.9028 9.16668 11.6667C9.16668 11.4306 9.24654 11.2326 9.40626 11.0729C9.56598 10.9132 9.7639 10.8333 10 10.8333C10.2361 10.8333 10.434 10.9132 10.5938 11.0729C10.7535 11.2326 10.8333 11.4306 10.8333 11.6667C10.8333 11.9028 10.7535 12.1007 10.5938 12.2604C10.434 12.4201 10.2361 12.5 10 12.5ZM13.3333 12.5C13.0972 12.5 12.8993 12.4201 12.7396 12.2604C12.5799 12.1007 12.5 11.9028 12.5 11.6667C12.5 11.4306 12.5799 11.2326 12.7396 11.0729C12.8993 10.9132 13.0972 10.8333 13.3333 10.8333C13.5695 10.8333 13.7674 10.9132 13.9271 11.0729C14.0868 11.2326 14.1667 11.4306 14.1667 11.6667C14.1667 11.9028 14.0868 12.1007 13.9271 12.2604C13.7674 12.4201 13.5695 12.5 13.3333 12.5Z" fill="#9CA3AF"/>
</g>
</svg>
