<svg width="24" height="24" viewBox="0 0 24 24" fill="none" xmlns="http://www.w3.org/2000/svg">
<mask id="mask0_141_2104" style="mask-type:alpha" maskUnits="userSpaceOnUse" x="0" y="0" width="24" height="24">
<rect y="24" width="24" height="24" transform="rotate(-90 0 24)" fill="#D9D9D9"/>
</mask>
<g mask="url(#mask0_141_2104)">
<path d="M11 16.5C11 17.4667 10.6583 18.2917 9.975 18.975C9.29167 19.6583 8.46667 20 7.5 20C6.53333 20 5.70833 19.6583 5.025 18.975C4.34167 18.2917 4 17.4667 4 16.5C4 15.5333 4.34167 14.7083 5.025 14.025C5.70833 13.3417 6.53333 13 7.5 13C8.46667 13 9.29167 13.3417 9.975 14.025C10.6583 14.7083 11 15.5333 11 16.5ZM9 16.5C9 16.0833 8.85417 15.7292 8.5625 15.4375C8.27083 15.1458 7.91667 15 7.5 15C7.08333 15 6.72917 15.1458 6.4375 15.4375C6.14583 15.7292 6 16.0833 6 16.5C6 16.9167 6.14583 17.2708 6.4375 17.5625C6.72917 17.8542 7.08333 18 7.5 18C7.91667 18 8.27083 17.8542 8.5625 17.5625C8.85417 17.2708 9 16.9167 9 16.5ZM20 7.5C20 8.46667 19.6583 9.29167 18.975 9.975C18.2917 10.6583 17.4667 11 16.5 11C15.5333 11 14.7083 10.6583 14.025 9.975C13.3417 9.29167 13 8.46667 13 7.5C13 6.53333 13.3417 5.70833 14.025 5.025C14.7083 4.34167 15.5333 4 16.5 4C17.4667 4 18.2917 4.34167 18.975 5.025C19.6583 5.70833 20 6.53333 20 7.5ZM18 7.5C18 7.08333 17.8542 6.72917 17.5625 6.4375C17.2708 6.14583 16.9167 6 16.5 6C16.0833 6 15.7292 6.14583 15.4375 6.4375C15.1458 6.72917 15 7.08333 15 7.5C15 7.91667 15.1458 8.27083 15.4375 8.5625C15.7292 8.85417 16.0833 9 16.5 9C16.9167 9 17.2708 8.85417 17.5625 8.5625C17.8542 8.27083 18 7.91667 18 7.5ZM20 18.6L18.6 20L4 5.4L5.4 4L20 18.6Z" fill="white"/>
</g>
</svg>
