<svg width="104" height="123" viewBox="0 0 104 123" fill="none" xmlns="http://www.w3.org/2000/svg">
<path d="M46.9396 85.0722C46.9396 85.0722 36.5609 82.7327 30.8709 77.5106C25.1748 72.2944 21.9971 62.9482 21.9971 62.9482C21.9971 62.9482 28.1068 64.0643 33.6409 65.992C34.5703 66.9827 36.339 69.0179 37.1605 70.9516C37.1605 70.9516 37.3343 68.9104 37.1904 67.4065C38.6714 68.0868 39.9605 68.8329 40.8898 69.6386C45.6085 73.7506 46.9396 85.0782 46.9396 85.0782V85.0722Z" fill="#45B800"/>
<path d="M28.4784 67.4901C27.0634 66.5173 25.6244 65.5743 24.2154 64.5896C24.1315 64.5299 24.2154 64.3986 24.2994 64.4523C26.9735 66.0458 29.6117 67.7408 32.1599 69.5253C33.0473 70.146 33.9226 70.7905 34.786 71.453C34.7261 71.3515 34.6661 71.2501 34.6062 71.1486C34.2944 70.6294 33.9646 70.1221 33.6408 69.6088C32.9813 68.5883 32.2618 67.5796 31.4344 66.6785C31.4044 66.6426 31.4584 66.5949 31.4883 66.6307C32.2978 67.5558 33.1012 68.4749 33.8387 69.4596C34.1924 69.9251 34.5162 70.4145 34.828 70.9099C34.9899 71.1665 35.1458 71.4232 35.2957 71.6917C35.3436 71.7812 35.3976 71.8708 35.4516 71.9603C36.7946 73.0107 38.1017 74.1029 39.3488 75.2607C40.1163 75.9769 40.8598 76.7169 41.5793 77.4808C41.1776 76.2275 40.8298 74.9682 40.3621 73.7328C40.3441 73.6911 40.4161 73.6732 40.4281 73.7149C40.8778 75.0041 41.3754 76.3051 41.7232 77.63C42.5206 78.4835 43.2761 79.3728 43.9956 80.2918C43.9836 80.2381 43.9716 80.1785 43.9596 80.1247C43.8397 79.6354 43.7198 79.1519 43.5879 78.6685C43.336 77.7315 43.0602 76.8064 42.7425 75.8873C42.0949 74.0074 41.2495 72.1692 39.9544 70.6413C39.9244 70.6055 39.9784 70.5578 40.0084 70.5936C42.035 72.9808 43.2221 75.8456 43.9836 78.8595C44.0915 79.3011 44.1994 79.7428 44.3014 80.1844C44.3553 80.4172 44.4153 80.6559 44.4573 80.9006C44.769 81.3243 45.0808 81.7481 45.3746 82.1838C47.1794 84.8515 48.5824 87.77 49.7695 90.76C51.1066 94.1261 52.1439 97.5995 53.0972 101.085C53.1152 101.151 53.0133 101.174 52.9893 101.109C50.9567 95.0631 48.8882 88.9278 45.4106 83.5266C44.6791 82.3867 43.8817 81.2885 43.0423 80.2262C41.3335 80.1307 39.6127 79.7607 37.9938 79.2235C36.207 78.6327 34.5162 77.8091 32.9333 76.7885C32.022 76.2037 31.1886 75.5173 30.3371 74.8369C30.2952 74.8071 30.3371 74.7474 30.3791 74.7832C31.7821 75.9649 33.473 76.89 35.1398 77.6479C36.8126 78.4119 38.5754 79.0087 40.3741 79.3966C41.1416 79.5637 41.921 79.6831 42.6945 79.7905C41.7352 78.6148 40.7099 77.4868 39.6306 76.4125C39.2829 76.0664 38.9171 75.7322 38.5574 75.392C37.3642 74.5266 36.0452 73.8403 34.7201 73.2017C33.0173 72.384 31.3444 71.5186 29.6596 70.6652C28.7123 70.1818 27.7649 69.6924 26.8056 69.2269C26.7637 69.209 26.8056 69.1493 26.8416 69.1672C28.5444 69.9848 30.2772 70.7547 32.004 71.5425C33.6228 72.2826 35.2657 73.0226 36.8186 73.894C36.8846 73.9298 36.9505 73.9716 37.0165 74.0133C35.6135 72.7958 34.1565 71.632 32.6635 70.516C31.2845 69.4835 29.8935 68.4689 28.4725 67.4901H28.4784Z" fill="#374151"/>
<path d="M29.0719 72.8197C29.9173 73.1897 30.7747 73.512 31.6082 73.9059C32.4656 74.3058 33.281 74.7713 34.0964 75.2547C34.1324 75.2786 34.0964 75.3263 34.0604 75.3084C33.233 74.9145 32.3936 74.5445 31.5722 74.1327C30.7328 73.7149 29.9053 73.2614 29.042 72.8854C29 72.8675 29.024 72.8018 29.0659 72.8197H29.0719Z" fill="#374151"/>
<path d="M80.6602 33C80.6602 33 77.7462 36.3243 77.5604 41.5822C77.5244 42.5073 77.6743 43.8024 77.7822 45.3183C73.9089 47.3773 71.007 51.0836 71.007 51.0836C73.2074 49.7706 76.2233 49.2394 77.8542 49.4542C77.8002 50.4509 77.6803 51.4894 77.4584 52.5398C76.7389 52.498 75.3479 52.5935 73.0575 53.4052C73.0575 53.4052 75.3119 53.3455 77.0267 54.193C75.174 60.0537 69.6759 66.0756 54.4885 68.63C54.4885 68.63 51.5566 58.3647 57.1806 47.3534C61.7195 38.443 80.6602 33 80.6602 33Z" fill="#45B800"/>
<path d="M49.2241 93.7022C49.4879 91.1956 49.8177 88.7009 50.2074 86.2122C50.9869 81.2347 51.9941 76.2871 53.2713 71.4111C53.8768 69.1134 54.5963 66.8634 55.4657 64.6671C55.4118 64.2672 55.4177 63.8554 55.4118 63.4556C55.3998 62.9721 55.3998 62.4887 55.4058 62.0053C55.4177 61.0385 55.4597 60.0716 55.5437 59.1048C55.7055 57.2009 55.9993 55.2911 56.479 53.435C56.7548 52.3607 57.0786 51.2984 57.3964 50.2301C57.4084 50.1883 57.4743 50.2062 57.4623 50.248C56.9227 52.0922 56.6169 54.0079 56.3411 55.9058C56.0653 57.7858 55.9034 59.6837 55.8315 61.5816C55.8135 62.1008 55.8015 62.62 55.8015 63.1392C55.8015 63.3601 55.8135 63.5809 55.8195 63.8077C56.5689 62.0053 57.4084 60.2447 58.3797 58.5378C59.9086 55.8282 61.6714 53.256 63.578 50.7971C63.56 50.5166 63.644 50.2241 63.7039 49.9496C63.7759 49.6094 63.8478 49.2752 63.9258 48.935C64.0817 48.2427 64.2556 47.5564 64.4414 46.876C64.8192 45.5033 65.3168 44.1843 65.7485 42.8296C65.7605 42.7878 65.8325 42.8057 65.8145 42.8475C65.4128 44.1843 65.1489 45.5749 64.8372 46.9357C64.6873 47.6101 64.5374 48.2845 64.3875 48.9589C64.3155 49.2991 64.2436 49.6333 64.1716 49.9735C64.1716 49.9973 64.1596 50.0212 64.1596 50.0511C64.7712 49.2812 65.4008 48.5172 66.0423 47.7712C68.9443 44.3873 72.1221 41.2599 75.3238 38.1625C75.7195 37.7805 76.1213 37.4105 76.517 37.0345C76.547 37.0046 76.5949 37.0524 76.5649 37.0822C73.5071 40.2573 70.4972 43.4682 67.6432 46.8342C66.9657 47.6339 66.3001 48.4396 65.6406 49.2633C65.9883 49.0305 66.3361 48.8037 66.6779 48.5829C67.5592 48.0099 68.4586 47.4489 69.376 46.9297C70.2993 46.4164 71.2287 45.9151 72.176 45.4436C73.1473 44.9662 74.1906 44.5723 75.132 44.0292C75.1739 44.0053 75.2099 44.0769 75.1679 44.0888C74.1966 44.4827 73.2972 45.0855 72.3979 45.6167C71.4745 46.1598 70.5512 46.7089 69.6458 47.2878C68.7524 47.8488 67.853 48.4098 66.9717 48.9827C66.2342 49.4602 65.5027 49.9794 64.7412 50.427C62.9904 52.689 61.3416 55.0285 59.8726 57.4755C58.9493 59.0212 58.1099 60.6028 57.3544 62.2261C57.5343 62.1485 57.7201 62.0709 57.9 61.9934C58.3617 61.7904 58.8294 61.5816 59.291 61.3786C60.1844 60.9847 61.0838 60.5968 61.9772 60.2089C63.68 59.4688 65.4128 58.7944 67.0796 57.9827C68.0149 57.5292 68.9383 57.0517 69.8077 56.4728C69.8436 56.4489 69.8796 56.5086 69.8437 56.5325C66.7318 58.6691 63.2363 60.1731 59.7887 61.695L58.2957 62.3514C57.888 62.5305 57.4743 62.7334 57.0486 62.8946C56.0293 65.1625 55.1719 67.496 54.4824 69.9012C53.0974 74.7056 52.0481 79.6114 51.1787 84.5292C50.3093 89.4648 49.7217 94.4363 49.2601 99.4317C49.2061 100.052 49.1461 100.679 49.0742 101.3C49.0442 101.55 48.6785 101.55 48.6785 101.288C48.7084 98.7513 48.9663 96.2148 49.2301 93.6963L49.2241 93.7022Z" fill="#374151"/>
<path d="M58.4636 51.949C58.7394 50.4092 59.1531 48.9112 59.5668 47.4072C59.5788 47.3654 59.6448 47.3833 59.6328 47.4251C59.2491 48.9052 58.9733 50.4092 58.6975 51.9072C58.4156 53.4351 58.1638 54.9689 57.948 56.5087C57.948 56.5325 57.906 56.5385 57.906 56.5087C58.0079 54.9808 58.1938 53.4589 58.4636 51.949Z" fill="#374151"/>
<path d="M65.0111 56.1147C66.0423 55.3926 67.1995 54.8375 68.3147 54.2646C68.8664 53.9781 69.43 53.7096 69.9876 53.441C70.5632 53.1605 71.1687 52.9277 71.7384 52.6413C71.7803 52.6233 71.8103 52.683 71.7743 52.7009C71.2167 52.9755 70.6951 53.3157 70.1435 53.6081C69.5799 53.9125 69.0223 54.2228 68.4586 54.5272C67.3494 55.118 66.2582 55.7805 65.089 56.258C64.9871 56.2997 64.9211 56.1744 65.0051 56.1088L65.0111 56.1147Z" fill="#374151"/>
<path opacity="0.1" d="M46.7476 67.1738C46.7476 67.1738 37.1423 64.888 32.7294 58.4722C28.5144 52.3489 27.1593 41.9046 27.0454 40.9855C27.2193 41.827 29.1979 50.9523 35.7393 55.2076C40.7458 58.4662 45.5844 61.14 46.7416 67.1738H46.7476Z" fill="#374151"/>
<path d="M37.8799 50.6539C39.5707 52.2713 40.8358 54.1811 41.4234 56.4609C41.4234 56.4788 41.3994 56.4908 41.3934 56.4729C40.674 54.3482 39.4808 52.2593 37.8379 50.7076C37.802 50.6778 37.8499 50.624 37.8859 50.6539H37.8799Z" fill="#374151"/>
<path d="M46.7476 67.1738C46.7476 67.1738 37.1424 64.888 32.7295 58.4722C28.5144 52.3488 27.1594 41.9045 27.0454 40.9854C27.0334 40.9437 27.0334 40.9198 27.0334 40.9198C27.0334 40.9198 31.6382 47.437 36.4828 49.1022C41.3274 50.7613 48.1327 56.5146 46.7417 67.1678L46.7476 67.1738Z" fill="#45B800"/>
<path d="M28.7423 44.5186C29.6357 46.2553 30.565 47.9861 31.7102 49.5736C32.8254 51.1193 34.1685 52.4383 35.6615 53.62C36.9685 54.6525 38.3476 55.5895 39.6667 56.5981C39.6547 56.5802 39.6487 56.5683 39.6367 56.5504C39.3908 56.1863 39.121 55.8282 38.8512 55.4821C38.2996 54.7838 37.7 54.1213 37.0945 53.4708C35.9013 52.1817 34.6841 50.9164 33.6109 49.5199C33.0173 48.744 32.4957 47.9264 32.07 47.0491C32.052 47.0073 32.1179 46.9834 32.1359 47.0252C33.6948 50.2599 36.8067 52.3249 39.0251 55.0524C39.3429 55.4403 39.6427 55.8402 39.9125 56.2579C40.1043 56.5504 40.3382 56.8846 40.4641 57.2308C41.6752 58.2155 42.7905 59.2898 43.7438 60.5252C43.6659 59.8985 43.528 59.2719 43.3601 58.6691C43.1202 57.8156 42.8085 57.0099 42.3408 56.246C42.3168 56.2042 42.3768 56.1684 42.4007 56.2042C42.8504 56.9562 43.2581 57.7679 43.522 58.6094C43.7318 59.2898 43.8337 59.9761 43.8697 60.6744C43.8697 60.6744 43.8697 60.6744 43.8697 60.6804C44.3494 61.319 44.7751 61.9934 45.1648 62.6916C45.1228 62.4887 45.0869 62.2858 45.0449 62.0769C44.853 61.122 44.6432 60.1731 44.3973 59.2361C43.8937 57.3322 43.2162 55.4821 42.089 53.8468C42.065 53.811 42.1189 53.7692 42.1489 53.805C43.2581 55.4164 44.1036 57.2188 44.7091 59.0749C45.0149 60.0119 45.2607 60.9668 45.4766 61.9277C45.5845 62.3992 45.6744 62.8707 45.7644 63.3422C45.8124 63.5869 45.8663 63.8375 45.9023 64.0882C46.8856 66.1532 47.5751 68.3674 48.1207 70.5696C49.0981 74.5325 49.7096 78.6087 50.1713 82.6611C50.651 86.9164 50.9028 91.2135 50.8308 95.4987C50.8188 96.0358 50.7889 96.5729 50.7589 97.1101C50.7529 97.2473 50.543 97.2712 50.537 97.122C50.4411 95.0033 50.3872 92.8786 50.2612 90.7599C50.1353 88.6353 49.9495 86.5225 49.7216 84.4098C49.2719 80.2619 48.6244 76.12 47.719 72.0497C46.9396 68.5524 45.9323 65.0371 44.0136 61.9695C43.0543 60.4357 41.9031 59.0749 40.548 57.8693C39.199 56.6638 37.73 55.6134 36.309 54.4973C34.894 53.3873 33.5389 52.1817 32.4177 50.7732C31.2066 49.2573 30.2592 47.5504 29.3599 45.8375C29.132 45.4018 28.8982 44.9721 28.6704 44.5424C28.6464 44.5006 28.7063 44.4648 28.7303 44.5006L28.7423 44.5186Z" fill="#374151"/>
<path d="M30.3972 45.9211C31.0147 47.2162 31.7522 48.4457 32.5377 49.6453C32.5556 49.6751 32.5137 49.7049 32.4957 49.6751C31.6563 48.4994 30.9608 47.2401 30.3312 45.945C30.3132 45.9032 30.3792 45.8793 30.3972 45.9211Z" fill="#374151"/>
<path d="M81.9971 62.9482C81.9971 62.9482 82.1469 76.5378 73.9867 80.4588C65.8264 84.3859 61.4494 81.1154 55.9033 82.4283C55.9033 82.4283 55.9033 82.4283 55.9153 82.4224C56.1312 82.1001 60.0884 76.4363 66.384 74.8726C72.8595 73.2672 80.0364 68.612 81.9971 62.9482Z" fill="#45B800"/>
<path opacity="0.1" d="M81.9971 62.9482C81.9971 62.9482 82.147 76.5378 73.9867 80.4588C65.8264 84.3859 61.4494 81.1154 55.9033 82.4283C55.9033 82.4283 55.9033 82.4283 55.9153 82.4224C56.1432 82.309 60.1963 80.2917 65.1968 79.6949C70.3412 79.0802 80.1743 75.738 82.0031 62.9482H81.9971Z" fill="#072142"/>
<path d="M55.3638 82.6671C56.3351 81.7957 57.4263 81.0437 58.6075 80.4768C58.7814 80.3932 58.9613 80.3276 59.1411 80.25C59.2251 80.1425 59.321 80.0351 59.417 79.9396C59.6628 79.683 59.9146 79.4443 60.1844 79.2115C60.6941 78.7758 61.2457 78.376 61.8273 78.0298C63.1823 77.236 64.6633 76.687 66.0423 75.9469C66.0843 75.923 66.1143 75.9887 66.0783 76.0066C65.3948 76.3587 64.7352 76.7466 64.0697 77.1346C63.4222 77.5106 62.7626 77.8687 62.1331 78.2745C61.5695 78.6386 61.0238 79.0384 60.5202 79.4801C60.3763 79.6054 60.2384 79.7427 60.1005 79.8799C60.9998 79.5756 61.9232 79.3368 62.8585 79.1518C64.3515 78.8534 65.8624 78.6386 67.3554 78.3222C68.0869 78.1671 68.8124 77.9701 69.5199 77.7374C70.1974 77.1943 70.8749 76.6571 71.5165 76.0663C72.2899 75.3561 73.0034 74.5802 73.627 73.7387C73.651 73.7029 73.7169 73.7387 73.687 73.7745C72.6797 75.0696 71.6004 76.3707 70.3413 77.4509C70.6951 77.3196 71.0428 77.1764 71.3846 77.0212C74.1606 75.7679 76.6249 73.7745 78.3397 71.2619C78.3637 71.2261 78.4237 71.2619 78.3997 71.2977C76.9067 73.4522 75.006 75.2964 72.7696 76.675C71.6484 77.3673 70.4672 77.9343 69.2141 78.3521C67.7751 78.8295 66.2821 79.116 64.7952 79.3906C63.3382 79.6591 61.8752 79.9396 60.4662 80.4171C59.1651 80.8587 57.936 81.4973 56.8388 82.315C54.7402 83.8786 53.1154 86.0272 51.9462 88.3547C50.3993 91.4403 49.6618 94.8899 49.2541 98.2917C49.2361 98.435 49.0082 98.435 49.0202 98.2917C49.404 92.5802 50.9389 86.6359 55.3638 82.673V82.6671Z" fill="#374151"/>
<path d="M64.8372 78.2386C65.2449 77.5881 65.8565 77.1047 66.516 76.7227C67.2895 76.2811 67.979 75.8036 68.5126 75.0815C68.5366 75.0457 68.6026 75.0815 68.5726 75.1173C68.0809 75.7499 67.4873 76.2632 66.8098 76.6869C66.0963 77.1286 65.3768 77.5702 64.8912 78.2685C64.8672 78.2983 64.8192 78.2685 64.8372 78.2386Z" fill="#374151"/>
<path d="M60.5081 92.6938L60.1363 100.172L58.9971 123H41.8731L40.7339 100.172L40.3682 92.6938H60.5081Z" fill="#4B5563"/>
<path d="M60.5081 92.6938L60.1363 100.172H40.7339L40.3682 92.6938H60.5081Z" fill="#374151"/>
<path d="M61.7073 89.5784H39.1631V96.7044H61.7073V89.5784Z" fill="#4B5563"/>
</svg>
