<svg width="20" height="20" viewBox="0 0 20 20" fill="none" xmlns="http://www.w3.org/2000/svg">
<path d="M17.1351 5.83985C16.1825 5.83985 15.3035 5.52426 14.5977 4.99187C13.7882 4.38155 13.2065 3.48629 13.0011 2.45442C12.9503 2.19947 12.9229 1.93637 12.9203 1.66675H10.199V9.1027L10.1957 13.1757C10.1957 14.2646 9.4866 15.1879 8.50364 15.5127C8.21837 15.6069 7.91028 15.6515 7.58947 15.6339C7.17999 15.6114 6.79625 15.4879 6.46273 15.2884C5.75298 14.8639 5.27177 14.0938 5.25873 13.2129C5.23819 11.8361 6.35123 10.7136 7.72705 10.7136C7.99863 10.7136 8.25945 10.7579 8.50364 10.8385V8.80602V8.0754C8.24608 8.03725 7.98396 8.01737 7.7189 8.01737C6.213 8.01737 4.80457 8.64333 3.79781 9.77105C3.03687 10.6233 2.58044 11.7106 2.51002 12.8507C2.41775 14.3484 2.9658 15.7722 4.02864 16.8226C4.1848 16.9768 4.34879 17.12 4.52028 17.252C5.43152 17.9533 6.54554 18.3334 7.7189 18.3334C7.98396 18.3334 8.24608 18.3139 8.50364 18.2757C9.59973 18.1133 10.6111 17.6116 11.4092 16.8226C12.3898 15.8534 12.9317 14.5665 12.9376 13.1969L12.9235 7.11461C13.3914 7.47552 13.9029 7.77415 14.4519 8.00596C15.3058 8.36621 16.2112 8.54879 17.1429 8.54846V6.57243V5.8392C17.1436 5.83985 17.1358 5.83985 17.1351 5.83985Z" fill="black"/>
</svg>
