<svg width="65" height="65" viewBox="0 0 65 65" fill="none" xmlns="http://www.w3.org/2000/svg">
<path d="M35.1935 10.0104L11.4833 23.6056C9.37373 24.8152 8.64416 27.5059 9.85377 29.6155L23.0892 52.6983C24.2988 54.8078 26.9895 55.5374 29.0991 54.3278L52.8093 40.7326C54.9189 39.523 55.6485 36.8322 54.4389 34.7227L41.2035 11.6399C39.9939 9.53033 37.3031 8.80076 35.1935 10.0104Z" fill="url(#paint0_radial_62_4581)"/>
<path d="M34.2943 12.296L13.1836 24.4006C11.3051 25.4778 10.6554 27.8738 11.7326 29.7524L23.5174 50.3052C24.5945 52.1838 26.9906 52.8334 28.8691 51.7563L49.9797 39.6517C51.8583 38.5745 52.5079 36.1785 51.4308 34.2999L39.646 13.7471C38.5689 11.8685 36.1728 11.2189 34.2943 12.296Z" fill="url(#paint1_radial_62_4581)"/>
<g style="mix-blend-mode:multiply" opacity="0.36">
<path d="M21.7908 27.9126L31.1099 44.1674C31.4924 44.8397 32.4676 44.8178 32.8249 44.1325L40.786 28.7648C41.1106 28.1348 40.6768 27.3726 39.9703 27.3384L22.6819 26.4519C21.91 26.4143 21.4002 27.2409 21.7827 27.9131L21.7908 27.9126Z" fill="#E48511"/>
</g>
<path d="M21.0369 26.5915L30.356 42.8464C30.7385 43.5187 31.7137 43.4967 32.071 42.8115L40.0321 27.4437C40.3567 26.8138 39.9229 26.0516 39.2163 26.0174L21.928 25.1309C21.1561 25.0933 20.6463 25.9198 21.0288 26.5921L21.0369 26.5915Z" fill="url(#paint2_radial_62_4581)"/>
<defs>
<radialGradient id="paint0_radial_62_4581" cx="0" cy="0" r="1" gradientUnits="userSpaceOnUse" gradientTransform="translate(-7.93888 20.4087) rotate(-29.8295) scale(63.2509 63.2508)">
<stop offset="0.23" stop-color="#FDE126"/>
<stop offset="0.93" stop-color="#F7A708"/>
</radialGradient>
<radialGradient id="paint1_radial_62_4581" cx="0" cy="0" r="1" gradientUnits="userSpaceOnUse" gradientTransform="translate(19.1636 25.0084) rotate(-29.8295) scale(35.6037 35.6037)">
<stop offset="0.23" stop-color="#FDE126"/>
<stop offset="0.93" stop-color="#F7A708"/>
</radialGradient>
<radialGradient id="paint2_radial_62_4581" cx="0" cy="0" r="1" gradientUnits="userSpaceOnUse" gradientTransform="translate(31.0925 25.061) rotate(-29.8295) scale(28.824)">
<stop offset="0.2" stop-color="white"/>
<stop offset="0.31" stop-color="#FAFBFC"/>
<stop offset="0.43" stop-color="#EDF2F3"/>
<stop offset="0.55" stop-color="#D7E2E4"/>
<stop offset="0.68" stop-color="#B9CBD0"/>
<stop offset="0.69" stop-color="#B6C9CE"/>
</radialGradient>
</defs>
</svg>
