<svg width="28" height="28" viewBox="0 0 28 28" fill="none" xmlns="http://www.w3.org/2000/svg">
<path fill-rule="evenodd" clip-rule="evenodd" d="M22.2672 5.7405C20.0738 3.54448 17.1567 2.33457 14.049 2.33328C7.64523 2.33328 2.43352 7.54485 2.43095 13.9503C2.43009 15.9979 2.965 17.9967 3.98172 19.7586L2.3335 25.7788L8.49238 24.1632C10.1894 25.0889 12.0999 25.5767 14.0442 25.5773H14.0491C20.4521 25.5773 25.6644 20.3653 25.6668 13.9596C25.6681 10.8552 24.4608 7.93637 22.2672 5.7405ZM14.049 23.6153H14.045C12.3123 23.6146 10.613 23.1489 9.13018 22.2693L8.77772 22.0599L5.12295 23.0187L6.09846 19.4554L5.86878 19.09C4.90214 17.5526 4.39171 15.7755 4.39256 13.951C4.39457 8.62697 8.72649 4.29547 14.0528 4.29547C16.6321 4.29633 19.0566 5.30204 20.8797 7.12728C22.7028 8.95252 23.7062 11.3786 23.7054 13.9589C23.7031 19.2833 19.3714 23.6153 14.049 23.6153ZM19.3457 16.3831C19.0555 16.2378 17.6282 15.5357 17.362 15.4387C17.0961 15.3418 16.9024 15.2936 16.709 15.5841C16.5154 15.8746 15.9592 16.5285 15.7898 16.7221C15.6203 16.9159 15.4512 16.9402 15.1608 16.7948C14.8705 16.6496 13.9352 16.3429 12.8263 15.354C11.9634 14.5842 11.3809 13.6336 11.2114 13.3431C11.0423 13.0523 11.21 12.9104 11.3388 12.7507C11.653 12.3605 11.9677 11.9513 12.0644 11.7577C12.1613 11.564 12.1128 11.3944 12.0401 11.2491C11.9677 11.1039 11.3872 9.67503 11.1453 9.09362C10.9095 8.5278 10.6704 8.60422 10.4921 8.59534C10.3229 8.5869 10.1293 8.58518 9.93569 8.58518C9.74222 8.58518 9.42768 8.65774 9.16152 8.94852C8.89549 9.23915 8.14565 9.94134 8.14565 11.3702C8.14565 12.7991 9.18584 14.1794 9.33095 14.3732C9.47605 14.5669 11.378 17.499 14.2899 18.7563C14.9825 19.0557 15.5232 19.2341 15.9449 19.3679C16.6404 19.5889 17.273 19.5577 17.7733 19.483C18.3311 19.3995 19.4906 18.7806 19.7328 18.1026C19.9746 17.4245 19.9746 16.8433 19.9019 16.7221C19.8295 16.6011 19.6359 16.5285 19.3457 16.3831Z" fill="white"/>
</svg>
