<svg width="28" height="28" viewBox="0 0 28 28" fill="none" xmlns="http://www.w3.org/2000/svg">
<path fill-rule="evenodd" clip-rule="evenodd" d="M22.2672 5.74059C20.0738 3.54457 17.1567 2.33466 14.049 2.33337C7.64523 2.33337 2.43352 7.54494 2.43095 13.9504C2.43009 15.998 2.965 17.9968 3.98172 19.7587L2.3335 25.7789L8.49238 24.1633C10.1894 25.089 12.0999 25.5768 14.0442 25.5774H14.0491C20.4521 25.5774 25.6644 20.3654 25.6668 13.9597C25.6681 10.8553 24.4608 7.93646 22.2672 5.74059ZM14.049 23.6154H14.045C12.3123 23.6147 10.613 23.149 9.13018 22.2694L8.77772 22.06L5.12295 23.0188L6.09846 19.4554L5.86878 19.0901C4.90214 17.5526 4.3917 15.7756 4.39256 13.9511C4.39457 8.62706 8.72649 4.29556 14.0528 4.29556C16.6321 4.29642 19.0566 5.30213 20.8797 7.12737C22.7028 8.95261 23.7062 11.3787 23.7054 13.959C23.7031 19.2834 19.3714 23.6154 14.049 23.6154ZM19.3457 16.3832C19.0555 16.2378 17.6282 15.5358 17.362 15.4388C17.0961 15.3419 16.9024 15.2937 16.709 15.5842C16.5154 15.8747 15.9592 16.5286 15.7898 16.7222C15.6203 16.916 15.4512 16.9403 15.1608 16.7949C14.8705 16.6497 13.9352 16.343 12.8263 15.3541C11.9634 14.5843 11.3809 13.6337 11.2114 13.3432C11.0423 13.0524 11.21 12.9105 11.3388 12.7508C11.653 12.3605 11.9677 11.9514 12.0644 11.7578C12.1613 11.564 12.1128 11.3945 12.0401 11.2492C11.9677 11.104 11.3872 9.67513 11.1453 9.09371C10.9095 8.52789 10.6704 8.60431 10.4921 8.59544C10.3229 8.58699 10.1293 8.58528 9.93569 8.58528C9.74222 8.58528 9.42768 8.65783 9.16152 8.94861C8.89549 9.23924 8.14565 9.94144 8.14565 11.3703C8.14565 12.7909 9.17387 14.1636 9.32835 14.3698C9.32924 14.371 9.33011 14.3721 9.33095 14.3732C9.47605 14.567 11.378 17.4991 14.2899 18.7564C14.9825 19.0558 15.5232 19.2342 15.9449 19.368C16.6404 19.589 17.273 19.5578 17.7733 19.4831C18.3311 19.3996 19.4906 18.7807 19.7328 18.1027C19.9746 17.4246 19.9746 16.8434 19.9019 16.7222C19.8295 16.6012 19.6359 16.5286 19.3457 16.3832Z" fill="#EDFAE6"/>
<path fill-rule="evenodd" clip-rule="evenodd" d="M14.049 23.6154H14.045C12.3123 23.6147 10.613 23.149 9.13018 22.2694L8.77772 22.06L5.12295 23.0188L6.09846 19.4554L5.86878 19.0901C4.90214 17.5526 4.3917 15.7756 4.39256 13.9511C4.39457 8.62706 8.72649 4.29556 14.0528 4.29556C16.6321 4.29642 19.0566 5.30213 20.8797 7.12737C22.7028 8.95261 23.7062 11.3787 23.7054 13.959C23.7031 19.2834 19.3714 23.6154 14.049 23.6154ZM17.362 15.4388C17.6282 15.5358 19.0555 16.2378 19.3457 16.3832C19.6359 16.5286 19.8295 16.6012 19.9019 16.7222C19.9746 16.8434 19.9746 17.4246 19.7328 18.1027C19.4906 18.7807 18.3311 19.3996 17.7733 19.4831C17.273 19.5578 16.6404 19.589 15.9449 19.368C15.5232 19.2342 14.9825 19.0558 14.2899 18.7564C11.378 17.4991 9.47605 14.567 9.33095 14.3732L9.32835 14.3698C9.17387 14.1636 8.14565 12.7909 8.14565 11.3703C8.14565 9.94144 8.89549 9.23924 9.16152 8.94861C9.42768 8.65783 9.74222 8.58528 9.93569 8.58528C10.1293 8.58528 10.3229 8.58699 10.4921 8.59544C10.6704 8.60431 10.9095 8.52789 11.1453 9.09371C11.3872 9.67513 11.9677 11.104 12.0401 11.2492C12.1128 11.3945 12.1613 11.564 12.0644 11.7578C11.9677 11.9514 11.653 12.3605 11.3388 12.7508C11.21 12.9105 11.0423 13.0524 11.2114 13.3432C11.3809 13.6337 11.9634 14.5843 12.8263 15.3541C13.9352 16.343 14.8705 16.6497 15.1608 16.7949C15.4512 16.9403 15.6203 16.916 15.7898 16.7222C15.9592 16.5286 16.5154 15.8747 16.709 15.5842C16.9024 15.2937 17.0961 15.3419 17.362 15.4388Z" fill="#45B800"/>
</svg>
